<svg xmlns="http://www.w3.org/2000/svg" xmlns:xlink="http://www.w3.org/1999/xlink" width="500" zoomAndPan="magnify" viewBox="0 0 375 374.999991" height="500" preserveAspectRatio="xMidYMid meet" version="1.0"><defs><clipPath id="48bb4e7d41"><path d="M 44.722656 336.570312 L 82.246094 336.570312 L 82.246094 374.78125 L 44.722656 374.78125 Z M 44.722656 336.570312 " clip-rule="nonzero"/></clipPath><clipPath id="a2027e23cb"><path d="M 56 39 L 370.453125 39 L 370.453125 319 L 56 319 Z M 56 39 " clip-rule="nonzero"/></clipPath><clipPath id="e67032d33d"><path d="M 4.453125 246 L 87 246 L 87 319 L 4.453125 319 Z M 4.453125 246 " clip-rule="nonzero"/></clipPath><clipPath id="462c9003be"><path d="M 4.453125 0 L 64 0 L 64 283 L 4.453125 283 Z M 4.453125 0 " clip-rule="nonzero"/></clipPath></defs><path fill="#ffffff" d="M 72.789062 342.453125 L 80.035156 357.988281 L 229.003906 288.519531 L 221.761719 272.984375 Z M 78.15625 367.027344 C 76.695312 367.027344 75.292969 366.195312 74.636719 364.785156 L 64.113281 342.214844 C 63.675781 341.285156 63.632812 340.21875 63.984375 339.25 C 64.335938 338.28125 65.058594 337.496094 65.988281 337.058594 L 222 264.3125 C 223.941406 263.402344 226.246094 264.246094 227.15625 266.1875 L 237.679688 288.757812 C 238.113281 289.691406 238.160156 290.757812 237.808594 291.726562 C 237.457031 292.691406 236.734375 293.480469 235.804688 293.910156 L 79.796875 366.660156 C 79.261719 366.910156 78.703125 367.027344 78.15625 367.027344 " fill-opacity="1" fill-rule="nonzero"/><path fill="#ffffff" d="M 234.164062 294.277344 C 233.136719 294.277344 232.113281 293.871094 231.351562 293.074219 C 229.875 291.523438 229.933594 289.066406 231.488281 287.585938 L 251.367188 268.636719 L 224.066406 271.683594 C 221.929688 271.917969 220.019531 270.386719 219.78125 268.257812 C 219.542969 266.128906 221.074219 264.210938 223.207031 263.972656 L 261.945312 259.644531 C 263.609375 259.457031 265.191406 260.351562 265.894531 261.859375 C 266.597656 263.371094 266.261719 265.160156 265.058594 266.308594 L 236.839844 293.207031 C 236.089844 293.921875 235.125 294.277344 234.164062 294.277344 " fill-opacity="1" fill-rule="nonzero"/><g clip-path="url(#48bb4e7d41)"><path fill="#ffffff" d="M 65.75 345.734375 L 53.789062 351.3125 C 53.191406 351.589844 52.941406 352.074219 52.847656 352.339844 C 52.75 352.601562 52.628906 353.136719 52.90625 353.734375 L 58.609375 365.96875 C 59.023438 366.84375 60.125 367.269531 61.035156 366.847656 L 72.996094 361.269531 Z M 60.269531 374.78125 C 56.558594 374.78125 53.144531 372.609375 51.578125 369.246094 L 45.875 357.011719 C 44.792969 354.691406 44.679688 352.089844 45.554688 349.683594 C 46.429688 347.28125 48.191406 345.359375 50.507812 344.277344 L 65.988281 337.058594 C 67.929688 336.152344 70.242188 336.996094 71.148438 338.933594 L 81.667969 361.503906 C 82.574219 363.445312 81.734375 365.753906 79.796875 366.660156 L 64.3125 373.882812 C 63.03125 374.476562 61.671875 374.78125 60.269531 374.78125 " fill-opacity="1" fill-rule="nonzero"/></g><path fill="#ffffff" d="M 262.382812 267.382812 C 260.921875 267.382812 259.523438 266.550781 258.863281 265.140625 C 257.957031 263.199219 258.800781 260.886719 260.738281 259.984375 L 266.546875 257.277344 C 268.488281 256.371094 270.800781 257.210938 271.703125 259.15625 C 272.609375 261.097656 271.769531 263.402344 269.828125 264.308594 L 264.023438 267.019531 C 263.488281 267.265625 262.929688 267.382812 262.382812 267.382812 " fill-opacity="1" fill-rule="nonzero"/><path fill="#ffffff" d="M 347.820312 300.085938 C 345.679688 300.085938 343.941406 298.347656 343.941406 296.207031 L 343.941406 221.621094 C 343.941406 219.480469 345.679688 217.742188 347.820312 217.742188 C 349.964844 217.742188 351.699219 219.480469 351.699219 221.621094 L 351.699219 296.207031 C 351.699219 298.347656 349.964844 300.085938 347.820312 300.085938 " fill-opacity="1" fill-rule="nonzero"/><g clip-path="url(#a2027e23cb)"><path fill="#ffffff" d="M 366.667969 318.933594 L 220.636719 318.933594 C 218.496094 318.933594 216.757812 317.195312 216.757812 315.050781 C 216.757812 312.910156 218.496094 311.171875 220.636719 311.171875 L 362.785156 311.171875 L 362.785156 47.609375 L 60.078125 47.609375 C 57.9375 47.609375 56.199219 45.871094 56.199219 43.726562 C 56.199219 41.585938 57.9375 39.847656 60.078125 39.847656 L 366.667969 39.847656 C 368.808594 39.847656 370.546875 41.585938 370.546875 43.726562 L 370.546875 315.050781 C 370.546875 317.195312 368.808594 318.933594 366.667969 318.933594 " fill-opacity="1" fill-rule="nonzero"/></g><g clip-path="url(#e67032d33d)"><path fill="#ffffff" d="M 83.015625 318.933594 L 44.269531 318.933594 C 22.3125 318.933594 4.453125 301.070312 4.453125 279.113281 C 4.453125 261.125 19.089844 246.484375 37.078125 246.484375 C 51.902344 246.484375 63.957031 258.546875 63.957031 273.367188 C 63.957031 285.652344 53.964844 295.644531 41.683594 295.644531 C 31.425781 295.644531 23.082031 287.300781 23.082031 277.046875 C 23.082031 274.902344 24.820312 273.164062 26.964844 273.164062 C 29.101562 273.164062 30.84375 274.902344 30.84375 277.046875 C 30.84375 283.023438 35.703125 287.882812 41.683594 287.882812 C 49.6875 287.882812 56.199219 281.371094 56.199219 273.367188 C 56.199219 262.824219 47.625 254.246094 37.078125 254.246094 C 23.371094 254.246094 12.214844 265.40625 12.214844 279.113281 C 12.214844 296.792969 26.597656 311.171875 44.269531 311.171875 L 83.015625 311.171875 C 85.160156 311.171875 86.894531 312.910156 86.894531 315.050781 C 86.894531 317.195312 85.160156 318.933594 83.015625 318.933594 " fill-opacity="1" fill-rule="nonzero"/></g><g clip-path="url(#462c9003be)"><path fill="#ffffff" d="M 8.332031 282.996094 C 6.1875 282.996094 4.453125 281.257812 4.453125 279.113281 L 4.453125 32.847656 C 4.453125 14.855469 19.089844 0.21875 37.078125 0.21875 C 51.902344 0.21875 63.957031 12.277344 63.957031 27.101562 L 63.957031 273.367188 C 63.957031 275.511719 62.222656 277.246094 60.078125 277.246094 C 57.9375 277.246094 56.199219 275.511719 56.199219 273.367188 L 56.199219 27.101562 C 56.199219 16.558594 47.625 7.980469 37.078125 7.980469 C 23.371094 7.980469 12.214844 19.136719 12.214844 32.847656 L 12.214844 279.113281 C 12.214844 281.257812 10.476562 282.996094 8.332031 282.996094 " fill-opacity="1" fill-rule="nonzero"/></g><path fill="#ffffff" d="M 27.179688 129.625 C 25.035156 129.625 23.300781 127.886719 23.300781 125.746094 L 23.300781 40.132812 C 23.300781 37.988281 25.035156 36.253906 27.179688 36.253906 C 29.324219 36.253906 31.058594 37.988281 31.058594 40.132812 L 31.058594 125.746094 C 31.058594 127.886719 29.324219 129.625 27.179688 129.625 " fill-opacity="1" fill-rule="nonzero"/><path fill="#ffffff" d="M 27.179688 156.132812 C 25.035156 156.132812 23.300781 154.394531 23.300781 152.253906 L 23.300781 143.441406 C 23.300781 141.296875 25.035156 139.558594 27.179688 139.558594 C 29.324219 139.558594 31.058594 141.296875 31.058594 143.441406 L 31.058594 152.253906 C 31.058594 154.394531 29.324219 156.132812 27.179688 156.132812 " fill-opacity="1" fill-rule="nonzero"/><path fill="#ffffff" d="M 314.128906 264.671875 L 285.671875 264.671875 C 283.53125 264.671875 281.792969 262.9375 281.792969 260.792969 C 281.792969 258.652344 283.53125 256.914062 285.671875 256.914062 L 310.25 256.914062 L 310.25 249.335938 C 310.25 247.195312 311.984375 245.457031 314.128906 245.457031 C 316.269531 245.457031 318.007812 247.195312 318.007812 249.335938 L 318.007812 260.792969 C 318.007812 262.9375 316.269531 264.671875 314.128906 264.671875 " fill-opacity="1" fill-rule="nonzero"/><path fill="#ffffff" d="M 314.128906 225.5 C 311.984375 225.5 310.25 223.765625 310.25 221.621094 L 310.25 100.601562 L 128.066406 100.601562 L 128.066406 210.386719 C 128.066406 212.53125 126.328125 214.265625 124.1875 214.265625 C 122.042969 214.265625 120.304688 212.53125 120.304688 210.386719 L 120.304688 96.71875 C 120.304688 94.578125 122.042969 92.839844 124.1875 92.839844 L 314.128906 92.839844 C 316.269531 92.839844 318.007812 94.578125 318.007812 96.71875 L 318.007812 221.621094 C 318.007812 223.765625 316.269531 225.5 314.128906 225.5 " fill-opacity="1" fill-rule="nonzero"/><path fill="#ffffff" d="M 230.246094 200.742188 L 208.070312 200.742188 C 205.929688 200.742188 204.191406 199.007812 204.191406 196.863281 L 204.191406 96.71875 C 204.191406 94.578125 205.929688 92.839844 208.070312 92.839844 C 210.214844 92.839844 211.953125 94.578125 211.953125 96.71875 L 211.953125 192.984375 L 230.246094 192.984375 C 232.386719 192.984375 234.125 194.71875 234.125 196.863281 C 234.125 199.007812 232.386719 200.742188 230.246094 200.742188 " fill-opacity="1" fill-rule="nonzero"/><path fill="#ffffff" d="M 314.128906 200.742188 L 257.21875 200.742188 C 255.074219 200.742188 253.335938 199.007812 253.335938 196.863281 C 253.335938 194.71875 255.074219 192.984375 257.21875 192.984375 L 314.128906 192.984375 C 316.269531 192.984375 318.007812 194.71875 318.007812 196.863281 C 318.007812 199.007812 316.269531 200.742188 314.128906 200.742188 " fill-opacity="1" fill-rule="nonzero"/><path fill="#ffffff" d="M 208.070312 184.484375 L 196.246094 184.484375 C 194.101562 184.484375 192.367188 182.746094 192.367188 180.605469 C 192.367188 178.460938 194.101562 176.722656 196.246094 176.722656 L 208.070312 176.722656 C 210.214844 176.722656 211.953125 178.460938 211.953125 180.605469 C 211.953125 182.746094 210.214844 184.484375 208.070312 184.484375 " fill-opacity="1" fill-rule="nonzero"/><path fill="#ffffff" d="M 171.488281 184.484375 L 124.1875 184.484375 C 122.042969 184.484375 120.304688 182.746094 120.304688 180.605469 C 120.304688 178.460938 122.042969 176.722656 124.1875 176.722656 L 171.488281 176.722656 C 173.632812 176.722656 175.367188 178.460938 175.367188 180.605469 C 175.367188 182.746094 173.632812 184.484375 171.488281 184.484375 " fill-opacity="1" fill-rule="nonzero"/><path fill="#ffffff" d="M 161.878906 228.457031 C 159.734375 228.457031 157.996094 226.722656 157.996094 224.578125 L 157.996094 180.605469 C 157.996094 178.460938 159.734375 176.722656 161.878906 176.722656 C 164.023438 176.722656 165.757812 178.460938 165.757812 180.605469 L 165.757812 224.578125 C 165.757812 226.722656 164.023438 228.457031 161.878906 228.457031 " fill-opacity="1" fill-rule="nonzero"/><path fill="#ffffff" d="M 124.1875 228.308594 C 123.167969 228.308594 122.167969 227.898438 121.441406 227.175781 C 120.71875 226.445312 120.304688 225.449219 120.304688 224.425781 C 120.304688 223.410156 120.71875 222.410156 121.441406 221.6875 C 122.890625 220.234375 125.484375 220.234375 126.929688 221.6875 C 127.660156 222.410156 128.066406 223.410156 128.066406 224.425781 C 128.066406 225.449219 127.660156 226.445312 126.929688 227.175781 C 126.203125 227.898438 125.207031 228.308594 124.1875 228.308594 " fill-opacity="1" fill-rule="nonzero"/><path fill="#ffffff" d="M 124.1875 240.433594 C 123.167969 240.433594 122.167969 240.011719 121.441406 239.292969 C 120.71875 238.574219 120.304688 237.574219 120.304688 236.554688 C 120.304688 235.523438 120.71875 234.527344 121.441406 233.804688 C 122.890625 232.363281 125.484375 232.363281 126.929688 233.804688 C 127.660156 234.527344 128.066406 235.523438 128.066406 236.554688 C 128.066406 237.574219 127.660156 238.574219 126.929688 239.292969 C 126.203125 240.011719 125.207031 240.433594 124.1875 240.433594 " fill-opacity="1" fill-rule="nonzero"/><path fill="#ffffff" d="M 124.1875 252.550781 C 123.167969 252.550781 122.167969 252.144531 121.441406 251.410156 C 120.71875 250.691406 120.304688 249.691406 120.304688 248.671875 C 120.304688 247.652344 120.71875 246.652344 121.441406 245.9375 C 122.890625 244.480469 125.484375 244.480469 126.929688 245.9375 C 127.660156 246.652344 128.066406 247.652344 128.066406 248.671875 C 128.066406 249.691406 127.660156 250.691406 126.929688 251.410156 C 126.203125 252.144531 125.207031 252.550781 124.1875 252.550781 " fill-opacity="1" fill-rule="nonzero"/><path fill="#ffffff" d="M 124.1875 264.667969 C 123.167969 264.667969 122.167969 264.261719 121.441406 263.539062 C 120.71875 262.816406 120.304688 261.808594 120.304688 260.789062 C 120.304688 259.769531 120.71875 258.769531 121.441406 258.050781 C 122.890625 256.609375 125.484375 256.609375 126.929688 258.050781 C 127.660156 258.769531 128.066406 259.769531 128.066406 260.789062 C 128.066406 261.808594 127.660156 262.816406 126.929688 263.539062 C 126.203125 264.261719 125.207031 264.667969 124.1875 264.667969 " fill-opacity="1" fill-rule="nonzero"/><path fill="#ffffff" d="M 160.550781 264.667969 C 159.53125 264.667969 158.53125 264.261719 157.800781 263.539062 C 157.082031 262.816406 156.667969 261.808594 156.667969 260.789062 C 156.667969 259.769531 157.082031 258.769531 157.800781 258.050781 C 159.253906 256.597656 161.847656 256.609375 163.289062 258.050781 C 164.019531 258.769531 164.429688 259.769531 164.429688 260.789062 C 164.429688 261.808594 164.019531 262.816406 163.289062 263.539062 C 162.566406 264.261719 161.570312 264.667969 160.550781 264.667969 " fill-opacity="1" fill-rule="nonzero"/><path fill="#ffffff" d="M 148.433594 264.667969 C 147.414062 264.667969 146.40625 264.261719 145.683594 263.539062 C 144.964844 262.816406 144.550781 261.820312 144.550781 260.789062 C 144.550781 259.769531 144.964844 258.769531 145.683594 258.050781 C 147.125 256.609375 149.730469 256.597656 151.167969 258.050781 C 151.894531 258.769531 152.3125 259.769531 152.3125 260.789062 C 152.3125 261.808594 151.894531 262.804688 151.167969 263.539062 C 150.449219 264.261719 149.457031 264.667969 148.433594 264.667969 " fill-opacity="1" fill-rule="nonzero"/><path fill="#ffffff" d="M 172.667969 264.667969 C 171.648438 264.667969 170.648438 264.261719 169.929688 263.539062 C 169.210938 262.816406 168.785156 261.808594 168.785156 260.789062 C 168.785156 259.769531 169.210938 258.769531 169.929688 258.050781 C 171.371094 256.609375 173.972656 256.597656 175.417969 258.050781 C 176.136719 258.769531 176.546875 259.769531 176.546875 260.789062 C 176.546875 261.808594 176.136719 262.816406 175.417969 263.539062 C 174.699219 264.261719 173.6875 264.667969 172.667969 264.667969 " fill-opacity="1" fill-rule="nonzero"/><path fill="#ffffff" d="M 184.796875 264.667969 C 183.773438 264.667969 182.765625 264.261719 182.046875 263.539062 C 181.328125 262.816406 180.914062 261.820312 180.914062 260.789062 C 180.914062 259.769531 181.328125 258.769531 182.046875 258.050781 C 183.496094 256.597656 186.082031 256.609375 187.53125 258.050781 C 188.257812 258.769531 188.675781 259.769531 188.675781 260.789062 C 188.675781 261.808594 188.257812 262.816406 187.53125 263.539062 C 186.8125 264.261719 185.8125 264.667969 184.796875 264.667969 " fill-opacity="1" fill-rule="nonzero"/><path fill="#ffffff" d="M 196.910156 264.667969 C 195.890625 264.667969 194.894531 264.261719 194.175781 263.539062 C 193.445312 262.816406 193.03125 261.820312 193.03125 260.789062 C 193.03125 259.769531 193.445312 258.769531 194.175781 258.050781 C 195.613281 256.609375 198.210938 256.609375 199.660156 258.050781 C 200.382812 258.769531 200.792969 259.769531 200.792969 260.789062 C 200.792969 261.808594 200.382812 262.816406 199.660156 263.539062 C 198.929688 264.261719 197.933594 264.667969 196.910156 264.667969 " fill-opacity="1" fill-rule="nonzero"/><path fill="#ffffff" d="M 136.300781 264.667969 C 135.285156 264.667969 134.289062 264.261719 133.566406 263.539062 C 132.847656 262.816406 132.421875 261.820312 132.421875 260.789062 C 132.421875 259.769531 132.847656 258.769531 133.566406 258.050781 C 135.007812 256.597656 137.613281 256.597656 139.054688 258.050781 C 139.777344 258.769531 140.183594 259.769531 140.183594 260.789062 C 140.183594 261.808594 139.777344 262.816406 139.054688 263.539062 C 138.332031 264.261719 137.324219 264.667969 136.300781 264.667969 " fill-opacity="1" fill-rule="nonzero"/></svg>