<svg xmlns="http://www.w3.org/2000/svg" xmlns:xlink="http://www.w3.org/1999/xlink" width="500" zoomAndPan="magnify" viewBox="0 0 375 374.999991" height="500" preserveAspectRatio="xMidYMid meet" version="1.0"><defs><clipPath id="79717c2888"><path d="M 19.121094 18.007812 L 351.371094 18.007812 L 351.371094 350 L 19.121094 350 Z M 19.121094 18.007812 " clip-rule="nonzero"/></clipPath></defs><g clip-path="url(#79717c2888)"><path fill="#ffffff" d="M 351.054688 183.976562 C 351.054688 186.691406 350.988281 189.40625 350.855469 192.121094 C 350.722656 194.832031 350.519531 197.539062 350.253906 200.242188 C 349.988281 202.945312 349.65625 205.640625 349.257812 208.328125 C 348.859375 211.015625 348.394531 213.691406 347.863281 216.355469 C 347.335938 219.019531 346.738281 221.667969 346.082031 224.300781 C 345.421875 226.9375 344.695312 229.554688 343.90625 232.152344 C 343.117188 234.753906 342.265625 237.332031 341.351562 239.886719 C 340.4375 242.445312 339.460938 244.980469 338.421875 247.488281 C 337.382812 249.996094 336.28125 252.480469 335.121094 254.9375 C 333.957031 257.390625 332.738281 259.816406 331.457031 262.210938 C 330.175781 264.605469 328.839844 266.96875 327.441406 269.300781 C 326.046875 271.628906 324.59375 273.921875 323.082031 276.183594 C 321.574219 278.441406 320.011719 280.660156 318.394531 282.84375 C 316.773438 285.023438 315.105469 287.164062 313.382812 289.265625 C 311.65625 291.363281 309.882812 293.417969 308.058594 295.433594 C 306.238281 297.445312 304.363281 299.410156 302.445312 301.332031 C 300.523438 303.253906 298.554688 305.125 296.542969 306.949219 C 294.53125 308.773438 292.476562 310.546875 290.375 312.269531 C 288.277344 313.992188 286.136719 315.664062 283.953125 317.28125 C 281.773438 318.898438 279.550781 320.464844 277.292969 321.972656 C 275.035156 323.480469 272.742188 324.933594 270.410156 326.328125 C 268.082031 327.726562 265.71875 329.066406 263.324219 330.34375 C 260.929688 331.625 258.503906 332.847656 256.046875 334.007812 C 253.589844 335.167969 251.109375 336.269531 248.601562 337.308594 C 246.089844 338.347656 243.558594 339.324219 241 340.242188 C 238.441406 341.15625 235.863281 342.007812 233.265625 342.796875 C 230.664062 343.585938 228.046875 344.308594 225.414062 344.96875 C 222.777344 345.628906 220.128906 346.222656 217.464844 346.753906 C 214.800781 347.285156 212.125 347.746094 209.441406 348.144531 C 206.753906 348.542969 204.058594 348.878906 201.355469 349.144531 C 198.652344 349.410156 195.945312 349.609375 193.230469 349.742188 C 190.519531 349.875 187.804688 349.941406 185.085938 349.941406 C 182.371094 349.941406 179.65625 349.875 176.945312 349.742188 C 174.230469 349.609375 171.523438 349.410156 168.820312 349.144531 C 166.117188 348.878906 163.421875 348.542969 160.734375 348.144531 C 158.046875 347.746094 155.371094 347.285156 152.707031 346.753906 C 150.042969 346.222656 147.394531 345.628906 144.761719 344.96875 C 142.125 344.308594 139.507812 343.585938 136.910156 342.796875 C 134.308594 342.007812 131.730469 341.15625 129.175781 340.242188 C 126.617188 339.324219 124.082031 338.347656 121.574219 337.308594 C 119.066406 336.269531 116.582031 335.167969 114.128906 334.007812 C 111.671875 332.847656 109.246094 331.625 106.851562 330.34375 C 104.457031 329.066406 102.09375 327.726562 99.761719 326.328125 C 97.433594 324.933594 95.140625 323.480469 92.882812 321.972656 C 90.621094 320.464844 88.402344 318.898438 86.222656 317.28125 C 84.039062 315.664062 81.898438 313.992188 79.800781 312.269531 C 77.699219 310.546875 75.644531 308.773438 73.632812 306.949219 C 71.617188 305.125 69.652344 303.253906 67.730469 301.332031 C 65.808594 299.410156 63.9375 297.445312 62.113281 295.433594 C 60.289062 293.417969 58.515625 291.363281 56.792969 289.265625 C 55.070312 287.164062 53.398438 285.023438 51.78125 282.84375 C 50.164062 280.660156 48.601562 278.441406 47.089844 276.183594 C 45.582031 273.921875 44.128906 271.628906 42.734375 269.300781 C 41.335938 266.96875 39.996094 264.605469 38.71875 262.210938 C 37.4375 259.816406 36.214844 257.390625 35.054688 254.9375 C 33.894531 252.480469 32.792969 249.996094 31.753906 247.488281 C 30.714844 244.980469 29.738281 242.445312 28.820312 239.886719 C 27.90625 237.332031 27.054688 234.753906 26.265625 232.152344 C 25.476562 229.554688 24.753906 226.9375 24.09375 224.300781 C 23.433594 221.667969 22.839844 219.019531 22.308594 216.355469 C 21.78125 213.691406 21.316406 211.015625 20.917969 208.328125 C 20.519531 205.640625 20.1875 202.945312 19.917969 200.242188 C 19.652344 197.539062 19.453125 194.832031 19.320312 192.121094 C 19.1875 189.40625 19.121094 186.691406 19.121094 183.976562 C 19.121094 181.257812 19.1875 178.546875 19.320312 175.832031 C 19.453125 173.121094 19.652344 170.410156 19.917969 167.707031 C 20.1875 165.003906 20.519531 162.308594 20.917969 159.625 C 21.316406 156.9375 21.78125 154.261719 22.308594 151.597656 C 22.839844 148.933594 23.433594 146.285156 24.09375 143.648438 C 24.753906 141.015625 25.476562 138.398438 26.265625 135.796875 C 27.054688 133.199219 27.90625 130.621094 28.820312 128.0625 C 29.738281 125.503906 30.714844 122.972656 31.753906 120.464844 C 32.792969 117.953125 33.894531 115.472656 35.054688 113.015625 C 36.214844 110.558594 37.4375 108.136719 38.71875 105.738281 C 39.996094 103.34375 41.335938 100.980469 42.734375 98.652344 C 44.128906 96.320312 45.582031 94.027344 47.089844 91.769531 C 48.601562 89.511719 50.164062 87.289062 51.78125 85.109375 C 53.398438 82.925781 55.070312 80.785156 56.792969 78.6875 C 58.515625 76.585938 60.289062 74.53125 62.113281 72.519531 C 63.9375 70.507812 65.808594 68.539062 67.730469 66.621094 C 69.652344 64.699219 71.617188 62.828125 73.632812 61.003906 C 75.644531 59.179688 77.699219 57.40625 79.800781 55.679688 C 81.898438 53.957031 84.039062 52.289062 86.222656 50.667969 C 88.402344 49.050781 90.621094 47.488281 92.882812 45.980469 C 95.140625 44.46875 97.433594 43.019531 99.761719 41.621094 C 102.09375 40.226562 104.457031 38.886719 106.851562 37.605469 C 109.246094 36.324219 111.671875 35.105469 114.128906 33.945312 C 116.582031 32.78125 119.066406 31.683594 121.574219 30.640625 C 124.082031 29.601562 126.617188 28.625 129.175781 27.710938 C 131.730469 26.796875 134.308594 25.945312 136.910156 25.15625 C 139.507812 24.367188 142.125 23.644531 144.761719 22.984375 C 147.394531 22.324219 150.042969 21.726562 152.707031 21.199219 C 155.371094 20.667969 158.046875 20.203125 160.734375 19.804688 C 163.421875 19.40625 166.117188 19.074219 168.820312 18.808594 C 171.523438 18.542969 174.230469 18.34375 176.945312 18.207031 C 179.65625 18.074219 182.371094 18.007812 185.085938 18.007812 C 187.804688 18.007812 190.519531 18.074219 193.230469 18.207031 C 195.945312 18.34375 198.652344 18.542969 201.355469 18.808594 C 204.058594 19.074219 206.753906 19.40625 209.441406 19.804688 C 212.125 20.203125 214.800781 20.667969 217.464844 21.199219 C 220.128906 21.726562 222.777344 22.324219 225.414062 22.984375 C 228.046875 23.644531 230.664062 24.367188 233.265625 25.15625 C 235.863281 25.945312 238.441406 26.796875 241 27.710938 C 243.558594 28.625 246.089844 29.601562 248.601562 30.640625 C 251.109375 31.683594 253.589844 32.78125 256.046875 33.945312 C 258.503906 35.105469 260.929688 36.324219 263.324219 37.605469 C 265.71875 38.886719 268.082031 40.226562 270.410156 41.621094 C 272.742188 43.019531 275.035156 44.46875 277.292969 45.980469 C 279.550781 47.488281 281.773438 49.050781 283.953125 50.667969 C 286.136719 52.289062 288.277344 53.957031 290.375 55.679688 C 292.476562 57.40625 294.53125 59.179688 296.542969 61.003906 C 298.554688 62.828125 300.523438 64.699219 302.445312 66.621094 C 304.363281 68.539062 306.238281 70.507812 308.058594 72.519531 C 309.882812 74.53125 311.65625 76.585938 313.382812 78.6875 C 315.105469 80.785156 316.773438 82.925781 318.394531 85.109375 C 320.011719 87.292969 321.574219 89.511719 323.082031 91.769531 C 324.59375 94.027344 326.046875 96.320312 327.441406 98.652344 C 328.839844 100.980469 330.175781 103.34375 331.457031 105.738281 C 332.738281 108.136719 333.957031 110.558594 335.121094 113.015625 C 336.28125 115.472656 337.382812 117.953125 338.421875 120.464844 C 339.460938 122.972656 340.4375 125.503906 341.351562 128.0625 C 342.265625 130.621094 343.117188 133.199219 343.90625 135.796875 C 344.695312 138.398438 345.421875 141.015625 346.082031 143.648438 C 346.738281 146.285156 347.335938 148.933594 347.863281 151.597656 C 348.394531 154.261719 348.859375 156.9375 349.257812 159.625 C 349.65625 162.308594 349.988281 165.003906 350.253906 167.707031 C 350.519531 170.410156 350.722656 173.121094 350.855469 175.832031 C 350.988281 178.546875 351.054688 181.257812 351.054688 183.976562 Z M 351.054688 183.976562 " fill-opacity="1" fill-rule="nonzero"/></g><path fill="#2c4e98" d="M 375 187.5 C 375 84.011719 290.988281 0 187.5 0 C 84.011719 0 0 84.011719 0 187.5 C 0 290.988281 84.011719 375 187.5 375 C 290.988281 375 375 290.988281 375 187.5 Z M 108.242188 237.269531 C 164.867188 180.644531 157.246094 188.261719 182.960938 162.550781 C 184.21875 161.289062 185.917969 160.59375 187.6875 160.59375 C 189.46875 160.59375 191.167969 161.289062 192.429688 162.550781 C 217.445312 187.566406 266.757812 236.894531 266.757812 236.894531 C 271.996094 242.117188 280.472656 242.117188 285.710938 236.894531 C 290.933594 231.65625 290.933594 223.179688 285.710938 217.941406 C 285.710938 217.941406 236.398438 168.628906 211.367188 143.613281 C 205.085938 137.332031 196.566406 133.808594 187.6875 133.808594 C 178.808594 133.808594 170.304688 137.332031 164.023438 143.613281 C 138.308594 169.3125 145.929688 161.707031 89.289062 218.332031 C 84.066406 223.566406 84.066406 232.042969 89.289062 237.269531 C 94.527344 242.503906 103.003906 242.503906 108.242188 237.269531 Z M 108.242188 237.269531 " fill-opacity="1" fill-rule="evenodd"/></svg>