<svg width="141" height="141" viewBox="0 0 141 141" fill="none" xmlns="http://www.w3.org/2000/svg">
<g clip-path="url(#clip0_135_386)">
<path d="M86.796 105.819C85.5328 105.475 84.2227 106.229 83.882 107.498C79.323 124.424 63.8805 136.246 46.326 136.246C24.8852 136.246 7.44088 118.801 7.44088 97.359C7.44088 77.1372 22.6042 60.4904 42.7144 58.6383C44.023 58.5179 44.9851 57.359 44.8646 56.0504C44.7427 54.7432 43.5912 53.79 42.2782 53.9001C19.7064 55.9799 2.68359 74.6639 2.68359 97.359C2.68359 121.424 22.2635 141.003 46.326 141.003C66.0278 141.003 83.3576 127.733 88.4733 108.733C88.817 107.465 88.0635 106.161 86.796 105.819Z" fill="white"/>
<path d="M30.093 101.608C29.3204 100.543 27.8326 100.31 26.7707 101.078C25.7087 101.849 25.4693 103.335 26.2404 104.4L35.4054 117.045C35.7991 117.59 36.4042 117.941 37.071 118.016C37.1577 118.023 37.2458 118.03 37.3324 118.03C37.9097 118.03 38.4692 117.819 38.9069 117.432L66.8029 92.7751C67.7884 91.9056 67.881 90.4016 67.01 89.4176C66.1405 88.435 64.638 88.3424 63.6539 89.2105L37.7202 112.132L30.093 101.608Z" fill="white"/>
<path d="M136.737 9.07982C135.442 6.58882 132.992 4.18301 130.018 2.48073C127.124 0.823976 124.055 -0.00292969 121.467 -0.00292969C118.87 -0.00292969 116.762 0.829851 115.808 2.49835C114.678 4.47382 115.612 6.89285 116.27 8.15891C117.567 10.6514 120.017 13.0572 122.991 14.7595C125.966 16.4603 129.285 17.3548 132.084 17.2094C133.503 17.1374 136.034 16.7203 137.177 14.7756L137.207 14.7286C138.325 12.7546 137.394 10.3444 136.737 9.07982Z" fill="white"/>
<path d="M120.019 50.4546C118.409 53.2746 115.214 54.9989 111.08 55.2118C110.796 55.2251 110.512 55.2324 110.222 55.2324C106.706 55.2339 102.889 54.1485 99.3769 52.1392C95.5773 49.964 92.5326 46.934 90.8009 43.6043C88.8901 39.9324 88.7579 36.3046 90.4293 33.3862L93.3036 28.8889C81.9693 26.8738 72.4268 29.7305 68.5816 36.4471C62.6259 46.8547 71.4648 63.1504 88.2835 72.7766C104.61 82.1208 122.514 81.7683 128.997 72.2214L130.219 70.0888C133.204 63.2753 130.503 54.0177 123.091 45.6459L120.019 50.4546Z" fill="white"/>
<path d="M131.474 21.9814C127.957 21.9814 124.14 20.8974 120.628 18.8882C116.829 16.7115 113.783 13.6815 112.052 10.3533C111.851 9.97139 111.684 9.58805 111.524 9.20764L94.4964 35.8478C93.4256 37.7249 94.3612 40.1439 95.0207 41.41C96.3161 43.9025 98.7645 46.3068 101.74 48.0106C104.713 49.7114 108.029 50.6073 110.835 50.4619C112.261 50.387 114.821 49.9684 115.95 47.9929L132.603 21.9329C132.511 21.9388 132.424 21.9549 132.33 21.9608C132.049 21.9755 131.761 21.9814 131.474 21.9814Z" fill="white"/>
<path d="M85.9224 76.9038C72.708 69.3426 64.0321 57.8144 62.3431 47.2277L59.6494 51.8807C53.7009 62.275 62.5384 78.5723 79.357 88.2014C87.6643 92.9543 96.6251 95.338 104.592 94.9371C112.169 94.5464 117.875 91.6529 120.66 86.787L123.236 82.2882C119.815 83.5895 115.897 84.2534 111.692 84.2534C103.637 84.2534 94.541 81.8373 85.9224 76.9038Z" fill="white"/>
</g>
<defs>
<clipPath id="clip0_135_386">
<rect width="141" height="141" fill="white"/>
</clipPath>
</defs>
</svg>
