<svg xmlns="http://www.w3.org/2000/svg" xmlns:xlink="http://www.w3.org/1999/xlink" width="500" zoomAndPan="magnify" viewBox="0 0 375 374.999991" height="500" preserveAspectRatio="xMidYMid meet" version="1.0"><defs><clipPath id="6fa1b07217"><path d="M 73.59375 75 L 119 75 L 119 93 L 73.59375 93 Z M 73.59375 75 " clip-rule="nonzero"/></clipPath><clipPath id="a825c0ed66"><path d="M 74 66.277344 L 301.242188 66.277344 L 301.242188 375 L 74 375 Z M 74 66.277344 " clip-rule="nonzero"/></clipPath></defs><path fill="#ffffff" d="M 150.960938 8.191406 L 150.960938 36.355469 C 150.960938 40.882812 154.628906 44.550781 159.152344 44.550781 C 163.679688 44.550781 167.34375 40.882812 167.34375 36.355469 L 167.34375 8.191406 C 167.34375 3.667969 163.679688 0 159.152344 0 C 154.628906 0 150.960938 3.667969 150.960938 8.191406 " fill-opacity="1" fill-rule="nonzero"/><path fill="#ffffff" d="M 99.972656 36.246094 L 119.890625 56.160156 C 123.089844 59.363281 128.277344 59.363281 131.476562 56.160156 C 134.675781 52.960938 134.675781 47.773438 131.476562 44.574219 L 111.558594 24.660156 C 108.359375 21.460938 103.171875 21.460938 99.972656 24.660156 C 96.773438 27.859375 96.773438 33.046875 99.972656 36.246094 " fill-opacity="1" fill-rule="nonzero"/><g clip-path="url(#6fa1b07217)"><path fill="#ffffff" d="M 81.949219 92.136719 L 110.113281 92.136719 C 114.640625 92.136719 118.308594 88.46875 118.308594 83.945312 C 118.308594 79.417969 114.640625 75.75 110.113281 75.75 L 81.949219 75.75 C 77.425781 75.75 73.757812 79.417969 73.757812 83.945312 C 73.757812 88.46875 77.425781 92.136719 81.949219 92.136719 " fill-opacity="1" fill-rule="nonzero"/></g><path fill="#ffffff" d="M 236.710938 75.394531 L 208.546875 75.394531 C 204.023438 75.394531 200.355469 79.0625 200.355469 83.589844 C 200.355469 88.113281 204.023438 91.78125 208.546875 91.78125 L 236.710938 91.78125 C 241.238281 91.78125 244.90625 88.113281 244.90625 83.589844 C 244.90625 79.0625 241.238281 75.394531 236.710938 75.394531 " fill-opacity="1" fill-rule="nonzero"/><path fill="#ffffff" d="M 206.851562 24.410156 L 186.933594 44.324219 C 183.734375 47.523438 183.734375 52.710938 186.933594 55.910156 C 190.132812 59.109375 195.320312 59.109375 198.519531 55.910156 L 218.4375 35.996094 C 221.636719 32.796875 221.636719 27.609375 218.4375 24.410156 C 215.238281 21.210938 210.050781 21.210938 206.851562 24.410156 " fill-opacity="1" fill-rule="nonzero"/><g clip-path="url(#a825c0ed66)"><path fill="#ffffff" d="M 145.765625 211.21875 C 145.765625 211.046875 145.757812 210.875 145.746094 210.707031 L 147.132812 93.457031 C 147.210938 87.042969 152.488281 81.824219 158.902344 81.824219 L 159.042969 81.824219 C 162.1875 81.863281 165.128906 83.125 167.324219 85.371094 C 169.519531 87.621094 170.710938 90.589844 170.671875 93.734375 L 169.789062 168.359375 L 169.789062 190.667969 C 169.789062 194.816406 173.164062 198.191406 177.308594 198.191406 C 181.457031 198.191406 184.828125 194.816406 184.828125 190.667969 L 184.828125 170.175781 C 186.546875 164.992188 191.488281 161.40625 196.988281 161.40625 L 197.140625 161.40625 C 200.558594 161.449219 203.757812 162.816406 206.148438 165.261719 C 208.535156 167.710938 209.828125 170.941406 209.789062 174.359375 L 209.765625 176.359375 C 209.761719 176.570312 209.769531 176.785156 209.789062 177.015625 L 209.789062 199.523438 C 209.789062 203.609375 213.113281 206.933594 217.199219 206.933594 C 221.285156 206.933594 224.609375 203.609375 224.609375 199.523438 L 224.609375 178.953125 C 226.753906 174.609375 231.164062 171.882812 236.0625 171.929688 C 239.425781 171.96875 242.574219 173.316406 244.925781 175.726562 C 247.277344 178.132812 248.550781 181.3125 248.511719 184.679688 L 248.398438 194.253906 L 248.398438 208.523438 C 248.398438 212.722656 251.8125 216.136719 256.011719 216.136719 C 260.210938 216.136719 263.628906 212.722656 263.628906 208.523438 L 263.625 194.398438 C 263.664062 191.410156 264.859375 188.613281 267 186.527344 C 269.136719 184.4375 271.960938 183.304688 274.953125 183.339844 C 277.941406 183.375 280.738281 184.574219 282.828125 186.714844 C 284.917969 188.851562 286.046875 191.675781 286.011719 194.664062 L 285.8125 211.492188 L 285.460938 279.988281 C 285.207031 301.351562 276.675781 321.402344 261.433594 336.453125 C 246.207031 351.488281 226.074219 359.769531 204.746094 359.769531 C 204.421875 359.769531 204.097656 359.769531 203.773438 359.765625 C 187.195312 359.566406 171.304688 354.371094 157.8125 344.738281 C 144.320312 335.105469 134.25 321.757812 128.683594 306.144531 L 89.527344 196.3125 C 89.066406 195.019531 89.269531 193.707031 90.09375 192.609375 C 90.859375 191.597656 91.96875 191.042969 93.21875 191.042969 C 93.3125 191.042969 93.40625 191.042969 93.5 191.050781 C 104.488281 191.769531 114.039062 198.488281 118.425781 208.585938 L 131.316406 238.246094 C 132.75 241.550781 136.347656 243.410156 139.875 242.664062 C 143.398438 241.917969 145.9375 238.765625 145.914062 235.164062 Z M 293.722656 176.074219 C 288.792969 171.023438 282.1875 168.195312 275.128906 168.109375 C 270.066406 168.058594 265.089844 169.453125 260.835938 172.109375 C 259.554688 169.539062 257.878906 167.191406 255.820312 165.085938 C 250.628906 159.765625 243.675781 156.789062 236.25 156.699219 C 231.078125 156.632812 225.96875 158.023438 221.554688 160.679688 C 220.339844 158.484375 218.832031 156.453125 217.042969 154.621094 C 211.808594 149.265625 204.804688 146.265625 197.320312 146.179688 C 193.160156 146.117188 189.027344 147.03125 185.253906 148.773438 L 185.902344 93.914062 C 186.078125 79.027344 174.109375 66.773438 159.21875 66.597656 C 159.121094 66.597656 159.023438 66.597656 158.925781 66.597656 C 144.171875 66.597656 132.082031 78.503906 131.90625 93.273438 L 130.65625 198.949219 C 123.398438 185.59375 109.871094 176.859375 94.496094 175.855469 C 88.03125 175.429688 81.84375 178.265625 77.941406 183.429688 C 74.039062 188.597656 73.007812 195.324219 75.183594 201.425781 L 114.335938 311.257812 C 120.953125 329.820312 132.925781 345.683594 148.960938 357.132812 C 165 368.582031 183.890625 374.761719 203.597656 374.992188 C 203.988281 374.996094 204.371094 375 204.761719 375 C 229.945312 375 253.746094 365.300781 271.78125 347.691406 C 290.117188 329.78125 300.386719 305.792969 300.691406 280.117188 L 301.042969 211.65625 L 301.242188 194.847656 C 301.324219 187.789062 298.652344 181.121094 293.722656 176.074219 " fill-opacity="1" fill-rule="nonzero"/></g></svg>