<svg xmlns="http://www.w3.org/2000/svg" xmlns:xlink="http://www.w3.org/1999/xlink" width="500" zoomAndPan="magnify" viewBox="0 0 375 374.999991" height="500" preserveAspectRatio="xMidYMid meet" version="1.0"><defs><clipPath id="974c6d73e4"><path d="M 73.59375 75 L 119 75 L 119 93 L 73.59375 93 Z M 73.59375 75 " clip-rule="nonzero"/></clipPath><clipPath id="3ed41ddf50"><path d="M 74 66.277344 L 301.429688 66.277344 L 301.429688 375 L 74 375 Z M 74 66.277344 " clip-rule="nonzero"/></clipPath></defs><path fill="#000000" d="M 151.023438 8.191406 L 151.023438 36.355469 C 151.023438 40.882812 154.695312 44.550781 159.226562 44.550781 C 163.753906 44.550781 167.421875 40.882812 167.421875 36.355469 L 167.421875 8.191406 C 167.421875 3.667969 163.753906 0 159.226562 0 C 154.695312 0 151.023438 3.667969 151.023438 8.191406 " fill-opacity="1" fill-rule="nonzero"/><path fill="#000000" d="M 99.996094 36.246094 L 119.925781 56.160156 C 123.128906 59.363281 128.320312 59.363281 131.523438 56.160156 C 134.726562 52.960938 134.726562 47.773438 131.523438 44.574219 L 111.589844 24.660156 C 108.386719 21.460938 103.199219 21.460938 99.996094 24.660156 C 96.792969 27.859375 96.792969 33.046875 99.996094 36.246094 " fill-opacity="1" fill-rule="nonzero"/><g clip-path="url(#974c6d73e4)"><path fill="#000000" d="M 81.957031 92.136719 L 110.144531 92.136719 C 114.671875 92.136719 118.34375 88.46875 118.34375 83.945312 C 118.34375 79.417969 114.671875 75.75 110.144531 75.75 L 81.957031 75.75 C 77.429688 75.75 73.757812 79.417969 73.757812 83.945312 C 73.757812 88.46875 77.429688 92.136719 81.957031 92.136719 " fill-opacity="1" fill-rule="nonzero"/></g><path fill="#000000" d="M 236.847656 75.394531 L 208.65625 75.394531 C 204.128906 75.394531 200.457031 79.0625 200.457031 83.589844 C 200.457031 88.113281 204.128906 91.78125 208.65625 91.78125 L 236.847656 91.78125 C 241.375 91.78125 245.046875 88.113281 245.046875 83.589844 C 245.046875 79.0625 241.375 75.394531 236.847656 75.394531 " fill-opacity="1" fill-rule="nonzero"/><path fill="#000000" d="M 206.960938 24.410156 L 187.027344 44.324219 C 183.824219 47.523438 183.824219 52.710938 187.027344 55.910156 C 190.230469 59.109375 195.421875 59.109375 198.625 55.910156 L 218.554688 35.996094 C 221.757812 32.796875 221.757812 27.609375 218.554688 24.410156 C 215.355469 21.210938 210.164062 21.210938 206.960938 24.410156 " fill-opacity="1" fill-rule="nonzero"/><g clip-path="url(#3ed41ddf50)"><path fill="#000000" d="M 145.824219 211.21875 C 145.824219 211.046875 145.816406 210.875 145.804688 210.707031 L 147.195312 93.457031 C 147.269531 87.042969 152.554688 81.824219 158.972656 81.824219 L 159.113281 81.824219 C 162.261719 81.863281 165.203125 83.125 167.402344 85.371094 C 169.597656 87.621094 170.792969 90.589844 170.753906 93.734375 L 169.867188 168.359375 L 169.867188 190.667969 C 169.867188 194.816406 173.246094 198.191406 177.394531 198.191406 C 181.546875 198.191406 184.921875 194.816406 184.921875 190.667969 L 184.921875 170.175781 C 186.640625 164.992188 191.585938 161.40625 197.089844 161.40625 L 197.242188 161.40625 C 200.664062 161.449219 203.863281 162.816406 206.253906 165.261719 C 208.644531 167.710938 209.941406 170.941406 209.902344 174.359375 L 209.875 176.359375 C 209.875 176.570312 209.882812 176.785156 209.902344 177.015625 L 209.902344 199.523438 C 209.902344 203.609375 213.226562 206.933594 217.316406 206.933594 C 221.40625 206.933594 224.734375 203.609375 224.734375 199.523438 L 224.734375 178.953125 C 226.882812 174.609375 231.292969 171.882812 236.195312 171.929688 C 239.5625 171.96875 242.714844 173.316406 245.070312 175.726562 C 247.421875 178.132812 248.695312 181.3125 248.65625 184.679688 L 248.542969 194.253906 L 248.542969 208.523438 C 248.542969 212.722656 251.960938 216.136719 256.164062 216.136719 C 260.363281 216.136719 263.785156 212.722656 263.785156 208.523438 L 263.78125 194.398438 C 263.820312 191.410156 265.015625 188.613281 267.160156 186.527344 C 269.296875 184.4375 272.121094 183.304688 275.117188 183.339844 C 278.109375 183.375 280.910156 184.574219 283 186.714844 C 285.089844 188.851562 286.222656 191.675781 286.1875 194.664062 L 285.988281 211.492188 L 285.636719 279.988281 C 285.382812 301.351562 276.84375 321.402344 261.589844 336.453125 C 246.347656 351.488281 226.199219 359.769531 204.851562 359.769531 C 204.53125 359.769531 204.207031 359.769531 203.882812 359.765625 C 187.289062 359.566406 171.382812 354.371094 157.882812 344.738281 C 144.378906 335.105469 134.296875 321.757812 128.726562 306.144531 L 89.542969 196.3125 C 89.078125 195.019531 89.28125 193.707031 90.109375 192.609375 C 90.875 191.597656 91.984375 191.042969 93.234375 191.042969 C 93.328125 191.042969 93.421875 191.042969 93.515625 191.050781 C 104.511719 191.769531 114.070312 198.488281 118.464844 208.585938 L 131.363281 238.246094 C 132.800781 241.550781 136.398438 243.410156 139.929688 242.664062 C 143.453125 241.917969 145.996094 238.765625 145.972656 235.164062 Z M 293.902344 176.074219 C 288.96875 171.023438 282.359375 168.195312 275.296875 168.109375 C 270.226562 168.058594 265.246094 169.453125 260.988281 172.109375 C 259.707031 169.539062 258.03125 167.191406 255.972656 165.085938 C 250.773438 159.765625 243.8125 156.789062 236.382812 156.699219 C 231.210938 156.632812 226.09375 158.023438 221.675781 160.679688 C 220.460938 158.484375 218.949219 156.453125 217.160156 154.621094 C 211.925781 149.265625 204.914062 146.265625 197.421875 146.179688 C 193.257812 146.117188 189.121094 147.03125 185.34375 148.773438 L 185.996094 93.914062 C 186.171875 79.027344 174.195312 66.773438 159.292969 66.597656 C 159.191406 66.597656 159.09375 66.597656 158.996094 66.597656 C 144.230469 66.597656 132.128906 78.503906 131.953125 93.273438 L 130.703125 198.949219 C 123.4375 185.59375 109.902344 176.859375 94.511719 175.855469 C 88.042969 175.429688 81.851562 178.265625 77.945312 183.429688 C 74.039062 188.597656 73.007812 195.324219 75.183594 201.425781 L 114.367188 311.257812 C 120.992188 329.820312 132.976562 345.683594 149.023438 357.132812 C 165.074219 368.582031 183.980469 374.761719 203.703125 374.992188 C 204.09375 374.996094 204.476562 375 204.867188 375 C 230.074219 375 253.894531 365.300781 271.945312 347.691406 C 290.296875 329.78125 300.570312 305.792969 300.878906 280.117188 L 301.230469 211.65625 L 301.429688 194.847656 C 301.511719 187.789062 298.839844 181.121094 293.902344 176.074219 " fill-opacity="1" fill-rule="nonzero"/></g></svg>