<svg xmlns="http://www.w3.org/2000/svg" xmlns:xlink="http://www.w3.org/1999/xlink" width="500" zoomAndPan="magnify" viewBox="0 0 375 374.999991" height="500" preserveAspectRatio="xMidYMid meet" version="1.0"><defs><clipPath id="3425eac887"><path d="M 44.183594 11.109375 L 330.683594 11.109375 L 330.683594 363.609375 L 44.183594 363.609375 Z M 44.183594 11.109375 " clip-rule="nonzero"/></clipPath></defs><g clip-path="url(#3425eac887)"><path fill="#2c4e98" d="M 327.589844 102.519531 L 239.398438 14.328125 C 237.324219 12.277344 234.527344 11.109375 231.59375 11.109375 L 143.402344 11.109375 C 125.167969 11.109375 110.328125 25.949219 110.328125 44.183594 L 110.328125 99.300781 L 77.257812 99.300781 C 59.023438 99.300781 44.183594 114.140625 44.183594 132.375 L 44.183594 330.808594 C 44.183594 349.039062 59.023438 363.878906 77.257812 363.878906 L 231.59375 363.878906 C 249.828125 363.878906 264.664062 349.039062 264.664062 330.808594 L 264.664062 275.6875 L 297.738281 275.6875 C 315.972656 275.6875 330.808594 260.847656 330.808594 242.613281 L 330.808594 110.324219 C 330.808594 107.394531 329.640625 104.59375 327.589844 102.519531 Z M 242.617188 48.746094 L 293.171875 99.300781 L 242.617188 99.300781 Z M 242.617188 330.808594 C 242.617188 336.871094 237.65625 341.832031 231.59375 341.832031 L 77.257812 341.832031 C 71.171875 341.832031 66.234375 336.871094 66.234375 330.808594 L 66.234375 132.375 C 66.234375 126.289062 71.171875 121.351562 77.257812 121.351562 L 154.425781 121.351562 L 154.425781 187.496094 C 154.425781 199.644531 164.324219 209.542969 176.472656 209.542969 L 242.617188 209.542969 Z M 176.472656 187.496094 L 176.472656 136.9375 L 227.03125 187.496094 Z M 308.761719 242.613281 C 308.761719 248.679688 303.800781 253.636719 297.738281 253.636719 L 264.664062 253.636719 L 264.664062 198.519531 C 264.664062 195.585938 263.496094 192.785156 261.445312 190.714844 L 173.253906 102.519531 C 171.183594 100.46875 168.382812 99.300781 165.449219 99.300781 L 132.378906 99.300781 L 132.378906 44.183594 C 132.378906 38.097656 137.316406 33.15625 143.402344 33.15625 L 220.570312 33.15625 L 220.570312 99.300781 C 220.570312 111.449219 230.445312 121.351562 242.617188 121.351562 L 308.761719 121.351562 Z M 308.761719 242.613281 " fill-opacity="1" fill-rule="nonzero"/></g></svg>