<svg xmlns="http://www.w3.org/2000/svg" xmlns:xlink="http://www.w3.org/1999/xlink" width="500" zoomAndPan="magnify" viewBox="0 0 375 374.999991" height="500" preserveAspectRatio="xMidYMid meet" version="1.0"><defs><clipPath id="36837ea49b"><path d="M 4.265625 4.265625 L 371 4.265625 L 371 371 L 4.265625 371 Z M 4.265625 4.265625 " clip-rule="nonzero"/></clipPath><clipPath id="a9f3420fe5"><path d="M 4.265625 4.265625 L 371.015625 4.265625 L 371.015625 371.015625 L 4.265625 371.015625 Z M 4.265625 4.265625 " clip-rule="nonzero"/></clipPath><clipPath id="7b5cf2e9ef"><path d="M 118 45 L 298 45 L 298 371.015625 L 118 371.015625 Z M 118 45 " clip-rule="nonzero"/></clipPath></defs><g clip-path="url(#36837ea49b)"><path fill="#4267b2" d="M 370.5625 187.597656 C 370.5625 190.59375 370.488281 193.585938 370.34375 196.574219 C 370.195312 199.566406 369.976562 202.550781 369.679688 205.527344 C 369.386719 208.507812 369.023438 211.476562 368.582031 214.4375 C 368.144531 217.398438 367.632812 220.347656 367.046875 223.285156 C 366.464844 226.222656 365.808594 229.140625 365.082031 232.046875 C 364.351562 234.949219 363.554688 237.832031 362.6875 240.699219 C 361.816406 243.5625 360.878906 246.40625 359.871094 249.222656 C 358.859375 252.042969 357.785156 254.835938 356.636719 257.601562 C 355.492188 260.367188 354.28125 263.101562 353 265.808594 C 351.71875 268.515625 350.375 271.1875 348.964844 273.828125 C 347.550781 276.46875 346.078125 279.070312 344.539062 281.640625 C 343 284.207031 341.398438 286.734375 339.734375 289.226562 C 338.070312 291.714844 336.347656 294.160156 334.566406 296.566406 C 332.78125 298.96875 330.941406 301.328125 329.039062 303.644531 C 327.140625 305.957031 325.1875 308.222656 323.175781 310.441406 C 321.164062 312.660156 319.101562 314.828125 316.984375 316.945312 C 314.867188 319.0625 312.703125 321.125 310.484375 323.136719 C 308.265625 325.144531 306 327.101562 303.683594 329 C 301.371094 330.898438 299.011719 332.738281 296.605469 334.523438 C 294.203125 336.308594 291.753906 338.03125 289.265625 339.691406 C 286.777344 341.355469 284.25 342.957031 281.679688 344.496094 C 279.113281 346.035156 276.507812 347.511719 273.867188 348.921875 C 271.230469 350.332031 268.554688 351.679688 265.847656 352.957031 C 263.144531 354.238281 260.40625 355.453125 257.640625 356.597656 C 254.875 357.742188 252.082031 358.820312 249.265625 359.828125 C 246.445312 360.835938 243.605469 361.777344 240.738281 362.644531 C 237.875 363.511719 234.992188 364.3125 232.085938 365.039062 C 229.183594 365.765625 226.261719 366.421875 223.328125 367.007812 C 220.390625 367.589844 217.441406 368.101562 214.480469 368.542969 C 211.519531 368.980469 208.546875 369.347656 205.570312 369.640625 C 202.589844 369.933594 199.605469 370.152344 196.617188 370.300781 C 193.625 370.449219 190.632812 370.519531 187.640625 370.519531 C 184.644531 370.519531 181.65625 370.449219 178.664062 370.300781 C 175.675781 370.152344 172.691406 369.933594 169.710938 369.640625 C 166.730469 369.347656 163.761719 368.980469 160.800781 368.542969 C 157.839844 368.101562 154.890625 367.589844 151.953125 367.007812 C 149.015625 366.421875 146.097656 365.765625 143.195312 365.039062 C 140.289062 364.3125 137.40625 363.511719 134.539062 362.644531 C 131.675781 361.777344 128.835938 360.835938 126.015625 359.828125 C 123.195312 358.820312 120.40625 357.742188 117.640625 356.597656 C 114.871094 355.453125 112.136719 354.238281 109.429688 352.957031 C 106.722656 351.679688 104.050781 350.332031 101.410156 348.921875 C 98.769531 347.511719 96.167969 346.035156 93.597656 344.496094 C 91.03125 342.957031 88.503906 341.355469 86.015625 339.691406 C 83.523438 338.03125 81.078125 336.308594 78.671875 334.523438 C 76.269531 332.738281 73.910156 330.898438 71.59375 329 C 69.28125 327.101562 67.015625 325.144531 64.796875 323.136719 C 62.578125 321.125 60.410156 319.0625 58.292969 316.945312 C 56.175781 314.828125 54.113281 312.660156 52.105469 310.441406 C 50.09375 308.222656 48.136719 305.957031 46.238281 303.644531 C 44.339844 301.328125 42.5 298.96875 40.714844 296.566406 C 38.933594 294.160156 37.207031 291.714844 35.546875 289.226562 C 33.882812 286.734375 32.28125 284.207031 30.742188 281.640625 C 29.203125 279.070312 27.726562 276.46875 26.316406 273.828125 C 24.90625 271.1875 23.558594 268.515625 22.28125 265.808594 C 21 263.101562 19.789062 260.367188 18.640625 257.601562 C 17.496094 254.835938 16.417969 252.042969 15.410156 249.222656 C 14.402344 246.40625 13.464844 243.5625 12.59375 240.699219 C 11.726562 237.832031 10.925781 234.949219 10.199219 232.046875 C 9.472656 229.140625 8.816406 226.222656 8.234375 223.285156 C 7.648438 220.347656 7.136719 217.398438 6.699219 214.4375 C 6.257812 211.476562 5.890625 208.507812 5.597656 205.527344 C 5.304688 202.550781 5.085938 199.566406 4.9375 196.574219 C 4.792969 193.585938 4.71875 190.59375 4.71875 187.597656 C 4.71875 184.605469 4.792969 181.613281 4.9375 178.625 C 5.085938 175.632812 5.304688 172.648438 5.597656 169.667969 C 5.890625 166.691406 6.257812 163.71875 6.699219 160.757812 C 7.136719 157.796875 7.648438 154.847656 8.234375 151.914062 C 8.816406 148.976562 9.472656 146.054688 10.199219 143.152344 C 10.925781 140.25 11.726562 137.363281 12.59375 134.5 C 13.464844 131.632812 14.402344 128.792969 15.410156 125.972656 C 16.417969 123.15625 17.496094 120.363281 18.640625 117.597656 C 19.789062 114.832031 21 112.097656 22.28125 109.390625 C 23.558594 106.683594 24.90625 104.011719 26.316406 101.371094 C 27.726562 98.730469 29.203125 96.125 30.742188 93.558594 C 32.28125 90.992188 33.882812 88.460938 35.546875 85.972656 C 37.207031 83.484375 38.933594 81.035156 40.714844 78.632812 C 42.5 76.226562 44.339844 73.867188 46.238281 71.554688 C 48.136719 69.238281 50.09375 66.972656 52.105469 64.753906 C 54.113281 62.539062 56.175781 60.371094 58.292969 58.253906 C 60.410156 56.136719 62.578125 54.074219 64.796875 52.0625 C 67.015625 50.050781 69.28125 48.097656 71.59375 46.199219 C 73.910156 44.300781 76.269531 42.457031 78.671875 40.675781 C 81.078125 38.890625 83.523438 37.167969 86.015625 35.503906 C 88.503906 33.839844 91.03125 32.242188 93.597656 30.703125 C 96.167969 29.164062 98.769531 27.6875 101.410156 26.277344 C 104.050781 24.863281 106.722656 23.519531 109.429688 22.238281 C 112.136719 20.960938 114.871094 19.746094 117.640625 18.601562 C 120.40625 17.457031 123.195312 16.378906 126.015625 15.371094 C 128.835938 14.359375 131.675781 13.421875 134.539062 12.554688 C 137.40625 11.683594 140.289062 10.886719 143.195312 10.160156 C 146.097656 9.429688 149.015625 8.777344 151.953125 8.191406 C 154.890625 7.609375 157.839844 7.097656 160.800781 6.65625 C 163.761719 6.21875 166.730469 5.851562 169.710938 5.558594 C 172.691406 5.265625 175.675781 5.042969 178.664062 4.898438 C 181.65625 4.75 184.644531 4.675781 187.640625 4.675781 C 190.632812 4.675781 193.625 4.75 196.617188 4.898438 C 199.605469 5.042969 202.589844 5.265625 205.570312 5.558594 C 208.546875 5.851562 211.519531 6.21875 214.480469 6.65625 C 217.441406 7.097656 220.390625 7.609375 223.328125 8.191406 C 226.261719 8.777344 229.183594 9.429688 232.085938 10.160156 C 234.992188 10.886719 237.875 11.683594 240.738281 12.554688 C 243.605469 13.421875 246.445312 14.359375 249.265625 15.371094 C 252.082031 16.378906 254.875 17.457031 257.640625 18.601562 C 260.40625 19.746094 263.144531 20.960938 265.847656 22.238281 C 268.554688 23.519531 271.230469 24.863281 273.867188 26.277344 C 276.507812 27.6875 279.113281 29.164062 281.679688 30.703125 C 284.25 32.242188 286.777344 33.839844 289.265625 35.503906 C 291.753906 37.167969 294.203125 38.890625 296.605469 40.675781 C 299.011719 42.457031 301.371094 44.300781 303.683594 46.199219 C 306 48.097656 308.265625 50.050781 310.484375 52.0625 C 312.703125 54.074219 314.867188 56.136719 316.984375 58.253906 C 319.101562 60.371094 321.164062 62.539062 323.175781 64.753906 C 325.1875 66.972656 327.140625 69.238281 329.039062 71.554688 C 330.941406 73.867188 332.78125 76.226562 334.566406 78.632812 C 336.347656 81.035156 338.070312 83.484375 339.734375 85.972656 C 341.398438 88.460938 343 90.992188 344.539062 93.558594 C 346.078125 96.125 347.550781 98.730469 348.964844 101.371094 C 350.375 104.011719 351.71875 106.683594 353 109.390625 C 354.28125 112.097656 355.492188 114.832031 356.636719 117.597656 C 357.785156 120.363281 358.859375 123.15625 359.871094 125.972656 C 360.878906 128.792969 361.816406 131.632812 362.6875 134.5 C 363.554688 137.363281 364.351562 140.25 365.082031 143.152344 C 365.808594 146.054688 366.464844 148.976562 367.046875 151.914062 C 367.632812 154.847656 368.144531 157.796875 368.582031 160.757812 C 369.023438 163.71875 369.386719 166.691406 369.679688 169.667969 C 369.976562 172.648438 370.195312 175.632812 370.34375 178.625 C 370.488281 181.613281 370.5625 184.605469 370.5625 187.597656 Z M 370.5625 187.597656 " fill-opacity="1" fill-rule="nonzero"/></g><g clip-path="url(#a9f3420fe5)"><path stroke-linecap="butt" transform="matrix(0.823232, 0, 0, 0.823232, -10.347345, -5.531425)" fill="none" stroke-linejoin="miter" d="M 462.700317 234.598523 C 462.700317 238.23795 462.610162 241.872632 462.434596 245.502569 C 462.254286 249.137251 461.988565 252.762443 461.627943 256.378145 C 461.272067 259.998591 460.830781 263.604803 460.294594 267.201525 C 459.763152 270.798247 459.141555 274.380733 458.429803 277.948985 C 457.722796 281.517237 456.925633 285.061763 456.04306 288.592055 C 455.155742 292.117601 454.187759 295.619423 453.134366 299.102264 C 452.076227 302.58036 450.937424 306.034732 449.71321 309.455888 C 448.484251 312.881789 447.179371 316.274475 445.784337 319.633946 C 444.394047 322.993417 442.923092 326.314928 441.366727 329.603223 C 439.810362 332.891519 438.178077 336.13711 436.465126 339.34474 C 434.747431 342.552371 432.95856 345.712551 431.089024 348.834771 C 429.219488 351.952246 427.274031 355.022271 425.252655 358.049591 C 423.231278 361.072166 421.138726 364.042546 418.974999 366.965475 C 416.806527 369.88366 414.571625 372.749649 412.260802 375.563443 C 409.954725 378.372493 407.582217 381.124602 405.138534 383.81977 C 402.694851 386.514939 400.189483 389.148423 397.617685 391.720221 C 395.045886 394.29202 392.417148 396.797388 389.721979 399.241071 C 387.02681 401.680009 384.274701 404.057261 381.460907 406.363339 C 378.651858 408.669416 375.785868 410.904319 372.862939 413.072791 C 369.944754 415.241263 366.96963 417.333815 363.947055 419.350446 C 360.92448 421.371823 357.854455 423.317279 354.732235 425.186815 C 351.61476 427.056351 348.449834 428.849967 345.242204 430.562918 C 342.039318 432.275868 338.788983 433.912899 335.500687 435.464519 C 332.217136 437.020884 328.89088 438.496584 325.531409 439.886873 C 322.171938 441.277163 318.779252 442.586787 315.358096 443.811001 C 311.932195 445.035215 308.482569 446.178764 304.999727 447.232157 C 301.521631 448.285551 298.01981 449.258279 294.489518 450.140852 C 290.963972 451.023425 287.4147 451.820587 283.851193 452.53234 C 280.282942 453.239347 276.700455 453.860944 273.103733 454.397131 C 269.507012 454.928572 265.896055 455.374604 262.280353 455.73048 C 258.659906 456.086356 255.034714 456.352077 251.404778 456.532388 C 247.770096 456.712698 244.135414 456.798109 240.500732 456.798109 C 236.861305 456.798109 233.231368 456.712698 229.596686 456.532388 C 225.96675 456.352077 222.341558 456.086356 218.721111 455.73048 C 215.100664 455.374604 211.494452 454.928572 207.897731 454.397131 C 204.301009 453.860944 200.718522 453.239347 197.15027 452.53234 C 193.582019 451.820587 190.037492 451.023425 186.511946 450.140852 C 182.981654 449.258279 179.479833 448.285551 175.996991 447.232157 C 172.518895 446.178764 169.069269 445.035215 165.643368 443.811001 C 162.217467 442.586787 158.829525 441.277163 155.470054 439.886873 C 152.105839 438.496584 148.784328 437.020884 145.496032 435.464519 C 142.207736 433.912899 138.962146 432.275868 135.754515 430.562918 C 132.546885 428.849967 129.386704 427.056351 126.264484 425.186815 C 123.147009 423.317279 120.076984 421.371823 117.054409 419.350446 C 114.027089 417.333815 111.05671 415.241263 108.13378 413.072791 C 105.215596 410.904319 102.349606 408.669416 99.535812 406.363339 C 96.726763 404.057261 93.974654 401.680009 91.279485 399.241071 C 88.584316 396.797388 85.950833 394.29202 83.379034 391.720221 C 80.807236 389.148423 78.301868 386.514939 75.86293 383.81977 C 73.419247 381.124602 71.041994 378.372493 68.735916 375.563443 C 66.429839 372.749649 64.194937 369.88366 62.026465 366.965475 C 59.862738 364.042546 57.765441 361.072166 55.748809 358.049591 C 53.727433 355.022271 51.781976 351.952246 49.91244 348.834771 C 48.042904 345.712551 46.249288 342.552371 44.536338 339.34474 C 42.823387 336.13711 41.186357 332.891519 39.634737 329.603223 C 38.078371 326.314928 36.607417 322.993417 35.212382 319.633946 C 33.822093 316.274475 32.512468 312.881789 31.288254 309.455888 C 30.06404 306.034732 28.925237 302.58036 27.867098 299.102264 C 26.813705 295.619423 25.840977 292.117601 24.958404 288.592055 C 24.075831 285.061763 23.278668 281.517237 22.571661 277.948985 C 21.859909 274.380733 21.238311 270.798247 20.70687 267.201525 C 20.170683 263.604803 19.724652 259.998591 19.368775 256.378145 C 19.012899 252.762443 18.747178 249.137251 18.566868 245.502569 C 18.391302 241.872632 18.301147 238.23795 18.301147 234.598523 C 18.301147 230.963842 18.391302 227.32916 18.566868 223.699223 C 18.747178 220.064541 19.012899 216.439349 19.368775 212.818902 C 19.724652 209.203201 20.170683 205.592244 20.70687 201.995522 C 21.238311 198.3988 21.859909 194.816314 22.571661 191.252807 C 23.278668 187.684555 24.075831 184.135284 24.958404 180.609737 C 25.840977 177.084191 26.813705 173.577624 27.867098 170.099528 C 28.925237 166.616687 30.06404 163.16706 31.288254 159.741159 C 32.512468 156.320003 33.822093 152.927317 35.212382 149.567846 C 36.607417 146.208375 38.078371 142.886864 39.634737 139.598568 C 41.186357 136.310273 42.823387 133.064682 44.536338 129.857052 C 46.249288 126.649421 48.042904 123.484496 49.91244 120.367021 C 51.781976 117.249546 53.727433 114.174776 55.748809 111.152201 C 57.765441 108.129626 59.862738 105.154501 62.026465 102.236317 C 64.194937 99.313387 66.429839 96.447398 68.735916 93.638349 C 71.041994 90.824554 73.419247 88.072445 75.86293 85.377277 C 78.301868 82.686853 80.807236 80.053369 83.379034 77.481571 C 85.950833 74.909772 88.584316 72.404404 91.279485 69.960721 C 93.974654 67.517038 96.726763 65.144531 99.535812 62.838453 C 102.349606 60.532375 105.215596 58.292728 108.13378 56.129001 C 111.05671 53.960529 114.027089 51.867977 117.054409 49.846601 C 120.076984 47.825224 123.147009 45.884513 126.264484 44.014977 C 129.386704 42.14544 132.546885 40.351825 135.754515 38.638874 C 138.962146 36.921178 142.207736 35.288893 145.496032 33.732528 C 148.784328 32.180908 152.105839 30.705208 155.470054 29.314919 C 158.829525 27.924629 162.217467 26.615005 165.643368 25.390791 C 169.069269 24.161832 172.518895 23.023028 175.996991 21.969635 C 179.479833 20.911496 182.981654 19.943513 186.511946 19.06094 C 190.037492 18.173622 193.582019 17.381205 197.15027 16.669452 C 200.718522 15.962445 204.301009 15.340848 207.897731 14.804661 C 211.494452 14.27322 215.100664 13.827188 218.721111 13.471312 C 222.341558 13.115436 225.96675 12.84497 229.596686 12.669404 C 233.231368 12.489094 236.861305 12.398938 240.500732 12.398938 C 244.135414 12.398938 247.770096 12.489094 251.404778 12.669404 C 255.034714 12.84497 258.659906 13.115436 262.280353 13.471312 C 265.896055 13.827188 269.507012 14.27322 273.103733 14.804661 C 276.700455 15.340848 280.282942 15.962445 283.851193 16.669452 C 287.4147 17.381205 290.963972 18.173622 294.489518 19.06094 C 298.01981 19.943513 301.521631 20.911496 304.999727 21.969635 C 308.482569 23.023028 311.932195 24.161832 315.358096 25.390791 C 318.779252 26.615005 322.171938 27.924629 325.531409 29.314919 C 328.89088 30.705208 332.217136 32.180908 335.500687 33.732528 C 338.788983 35.288893 342.039318 36.921178 345.242204 38.638874 C 348.449834 40.351825 351.61476 42.14544 354.732235 44.014977 C 357.854455 45.884513 360.92448 47.825224 363.947055 49.846601 C 366.96963 51.867977 369.944754 53.960529 372.862939 56.129001 C 375.785868 58.292728 378.651858 60.532375 381.460907 62.838453 C 384.274701 65.144531 387.02681 67.517038 389.721979 69.960721 C 392.417148 72.404404 395.045886 74.909772 397.617685 77.481571 C 400.189483 80.053369 402.694851 82.686853 405.138534 85.377277 C 407.582217 88.072445 409.954725 90.824554 412.260802 93.638349 C 414.571625 96.447398 416.806527 99.313387 418.974999 102.236317 C 421.138726 105.154501 423.231278 108.129626 425.252655 111.152201 C 427.274031 114.174776 429.219488 117.249546 431.089024 120.367021 C 432.95856 123.484496 434.747431 126.649421 436.465126 129.857052 C 438.178077 133.064682 439.810362 136.310273 441.366727 139.598568 C 442.923092 142.886864 444.394047 146.208375 445.784337 149.567846 C 447.179371 152.927317 448.484251 156.320003 449.71321 159.741159 C 450.937424 163.16706 452.076227 166.616687 453.134366 170.099528 C 454.187759 173.577624 455.155742 177.084191 456.04306 180.609737 C 456.925633 184.135284 457.722796 187.684555 458.429803 191.252807 C 459.141555 194.816314 459.763152 198.3988 460.294594 201.995522 C 460.830781 205.592244 461.272067 209.203201 461.627943 212.818902 C 461.988565 216.439349 462.254286 220.064541 462.434596 223.699223 C 462.610162 227.32916 462.700317 230.963842 462.700317 234.598523 Z M 462.700317 234.598523 " stroke="#4267b2" stroke-width="1" stroke-opacity="1" stroke-miterlimit="10"/></g><path fill="#ffffff" d="M 230.613281 58.679688 C 216.042969 61.316406 211.019531 63.785156 202.621094 68.558594 C 193.648438 73.664062 187.394531 79.015625 183.113281 83.378906 C 169.117188 97.867188 165.988281 111.367188 163.355469 121.824219 C 159.402344 137.21875 159.816406 151.707031 159.816406 151.707031 L 159.816406 162.984375 L 130.425781 162.984375 L 130.425781 214.105469 L 159.816406 214.105469 L 159.816406 368.464844 C 168.871094 369.863281 178.171875 370.601562 187.640625 370.601562 C 201.636719 370.601562 215.300781 369.039062 228.390625 366.074219 L 228.390625 214.105469 L 273.089844 214.105469 L 273.089844 162.984375 L 228.390625 162.984375 L 228.390625 152.117188 C 228.390625 152.117188 228.390625 150.140625 228.390625 149.894531 C 228.390625 149.648438 228.390625 149.320312 228.390625 149.070312 C 228.390625 146.847656 228.472656 143.554688 228.964844 140.675781 C 230.199219 133.183594 232.753906 127.339844 237.035156 122.152344 C 241.972656 116.226562 247.734375 113.671875 254.15625 112.683594 C 270.046875 110.214844 283.300781 115.730469 283.300781 115.730469 L 285.769531 61.972656 C 285.769531 61.972656 275.808594 58.761719 259.34375 57.609375 C 247.734375 56.789062 237.445312 57.445312 230.613281 58.679688 Z M 230.613281 58.679688 " fill-opacity="1" fill-rule="nonzero"/><g clip-path="url(#7b5cf2e9ef)"><path stroke-linecap="butt" transform="matrix(0.823232, 0, 0, 0.823232, -10.347345, -5.531425)" fill="none" stroke-linejoin="miter" d="M 292.700647 77.998777 C 275.00174 81.201663 268.89965 84.200513 258.697866 89.998922 C 247.798566 96.200657 240.201796 102.701328 235.001259 108.00151 C 217.999869 125.600773 214.199111 141.999546 211.000971 154.701953 C 206.199015 173.402059 206.701987 191.001321 206.701987 191.001321 L 206.701987 204.700181 L 171.00049 204.700181 L 171.00049 266.798199 L 206.701987 266.798199 L 206.701987 454.30223 C 217.700933 456.000946 228.998814 456.897754 240.500732 456.897754 C 257.502122 456.897754 274.100187 454.999748 290.000733 451.398281 L 290.000733 266.798199 L 344.297946 266.798199 L 344.297946 204.700181 L 290.000733 204.700181 L 290.000733 191.499548 C 290.000733 191.499548 290.000733 189.09857 290.000733 188.799634 C 290.000733 188.500698 290.000733 188.102117 290.000733 187.798436 C 290.000733 185.098522 290.100379 181.098474 290.698251 177.601397 C 292.197676 168.500458 295.300916 161.401915 300.501453 155.100534 C 306.499152 147.902346 313.49805 144.799105 321.298856 143.598617 C 340.601579 140.599767 356.701416 147.299729 356.701416 147.299729 L 359.700266 81.998826 C 359.700266 81.998826 347.600476 78.098423 327.600236 76.698643 C 313.49805 75.70219 300.999679 76.499353 292.700647 77.998777 Z M 292.700647 77.998777 " stroke="#ffffff" stroke-width="1" stroke-opacity="1" stroke-miterlimit="10"/></g></svg>