<svg xmlns="http://www.w3.org/2000/svg" xmlns:xlink="http://www.w3.org/1999/xlink" width="500" zoomAndPan="magnify" viewBox="0 0 375 374.999991" height="500" preserveAspectRatio="xMidYMid meet" version="1.0"><defs><clipPath id="eff4516e53"><path d="M 4.265625 4.265625 L 371.015625 4.265625 L 371.015625 371.015625 L 4.265625 371.015625 Z M 4.265625 4.265625 " clip-rule="nonzero"/></clipPath><clipPath id="30e9a12db4"><path d="M 371.015625 187.640625 C 371.015625 190.640625 370.941406 193.640625 370.792969 196.636719 C 370.648438 199.636719 370.425781 202.628906 370.132812 205.613281 C 369.835938 208.601562 369.46875 211.578125 369.03125 214.546875 C 368.589844 217.515625 368.078125 220.472656 367.492188 223.414062 C 366.90625 226.359375 366.25 229.285156 365.519531 232.195312 C 364.789062 235.109375 363.988281 238 363.117188 240.871094 C 362.246094 243.742188 361.304688 246.589844 360.296875 249.417969 C 359.285156 252.242188 358.203125 255.042969 357.054688 257.816406 C 355.90625 260.585938 354.691406 263.328125 353.410156 266.042969 C 352.125 268.753906 350.777344 271.4375 349.363281 274.082031 C 347.949219 276.730469 346.46875 279.339844 344.925781 281.914062 C 343.382812 284.488281 341.777344 287.023438 340.109375 289.519531 C 338.445312 292.011719 336.714844 294.464844 334.929688 296.875 C 333.140625 299.285156 331.292969 301.652344 329.390625 303.972656 C 327.488281 306.292969 325.527344 308.5625 323.511719 310.785156 C 321.496094 313.011719 319.425781 315.183594 317.304688 317.304688 C 315.183594 319.425781 313.011719 321.496094 310.785156 323.511719 C 308.5625 325.527344 306.292969 327.488281 303.972656 329.390625 C 301.652344 331.292969 299.285156 333.140625 296.875 334.929688 C 294.464844 336.714844 292.011719 338.445312 289.519531 340.109375 C 287.023438 341.777344 284.488281 343.382812 281.914062 344.925781 C 279.339844 346.46875 276.730469 347.949219 274.082031 349.363281 C 271.4375 350.777344 268.753906 352.125 266.042969 353.410156 C 263.328125 354.691406 260.585938 355.90625 257.816406 357.054688 C 255.042969 358.203125 252.242188 359.285156 249.417969 360.296875 C 246.589844 361.304688 243.742188 362.246094 240.871094 363.117188 C 238 363.988281 235.109375 364.789062 232.195312 365.519531 C 229.285156 366.25 226.359375 366.90625 223.414062 367.492188 C 220.472656 368.078125 217.515625 368.589844 214.546875 369.03125 C 211.578125 369.46875 208.601562 369.835938 205.613281 370.132812 C 202.628906 370.425781 199.636719 370.648438 196.636719 370.792969 C 193.640625 370.941406 190.640625 371.015625 187.640625 371.015625 C 184.640625 371.015625 181.640625 370.941406 178.640625 370.792969 C 175.644531 370.648438 172.652344 370.425781 169.667969 370.132812 C 166.679688 369.835938 163.703125 369.46875 160.734375 369.03125 C 157.765625 368.589844 154.808594 368.078125 151.867188 367.492188 C 148.921875 366.90625 145.996094 366.25 143.082031 365.519531 C 140.171875 364.789062 137.28125 363.988281 134.410156 363.117188 C 131.539062 362.246094 128.6875 361.304688 125.863281 360.296875 C 123.039062 359.285156 120.238281 358.203125 117.464844 357.054688 C 114.691406 355.90625 111.949219 354.691406 109.238281 353.410156 C 106.523438 352.125 103.84375 350.777344 101.199219 349.363281 C 98.550781 347.949219 95.941406 346.46875 93.367188 344.925781 C 90.792969 343.382812 88.257812 341.777344 85.761719 340.109375 C 83.265625 338.445312 80.8125 336.714844 78.402344 334.929688 C 75.992188 333.140625 73.628906 331.292969 71.308594 329.390625 C 68.988281 327.488281 66.714844 325.527344 64.492188 323.511719 C 62.269531 321.496094 60.097656 319.425781 57.972656 317.304688 C 55.851562 315.183594 53.785156 313.011719 51.769531 310.785156 C 49.753906 308.5625 47.792969 306.292969 45.890625 303.972656 C 43.984375 301.652344 42.140625 299.285156 40.351562 296.875 C 38.5625 294.464844 36.835938 292.011719 35.167969 289.519531 C 33.503906 287.023438 31.898438 284.488281 30.355469 281.914062 C 28.8125 279.339844 27.332031 276.730469 25.917969 274.082031 C 24.503906 271.4375 23.152344 268.753906 21.871094 266.042969 C 20.585938 263.328125 19.371094 260.585938 18.222656 257.816406 C 17.074219 255.042969 15.996094 252.242188 14.984375 249.417969 C 13.972656 246.589844 13.03125 243.742188 12.160156 240.871094 C 11.289062 238 10.488281 235.109375 9.761719 232.195312 C 9.03125 229.285156 8.375 226.359375 7.789062 223.414062 C 7.203125 220.472656 6.691406 217.515625 6.25 214.546875 C 5.808594 211.578125 5.441406 208.601562 5.148438 205.613281 C 4.855469 202.628906 4.632812 199.636719 4.484375 196.636719 C 4.339844 193.640625 4.265625 190.640625 4.265625 187.640625 C 4.265625 184.640625 4.339844 181.640625 4.484375 178.640625 C 4.632812 175.644531 4.855469 172.652344 5.148438 169.667969 C 5.441406 166.679688 5.808594 163.703125 6.25 160.734375 C 6.691406 157.765625 7.203125 154.808594 7.789062 151.867188 C 8.375 148.921875 9.03125 145.996094 9.761719 143.082031 C 10.488281 140.171875 11.289062 137.28125 12.160156 134.410156 C 13.03125 131.539062 13.972656 128.6875 14.984375 125.863281 C 15.996094 123.039062 17.074219 120.238281 18.222656 117.464844 C 19.371094 114.691406 20.585938 111.949219 21.871094 109.238281 C 23.152344 106.523438 24.503906 103.84375 25.917969 101.199219 C 27.332031 98.550781 28.8125 95.941406 30.355469 93.367188 C 31.898438 90.792969 33.503906 88.257812 35.167969 85.761719 C 36.835938 83.265625 38.5625 80.8125 40.351562 78.402344 C 42.140625 75.992188 43.984375 73.628906 45.890625 71.308594 C 47.792969 68.988281 49.753906 66.714844 51.769531 64.492188 C 53.785156 62.269531 55.851562 60.097656 57.972656 57.972656 C 60.097656 55.851562 62.269531 53.785156 64.492188 51.769531 C 66.714844 49.753906 68.988281 47.792969 71.308594 45.890625 C 73.628906 43.984375 75.992188 42.140625 78.402344 40.351562 C 80.8125 38.5625 83.265625 36.835938 85.761719 35.167969 C 88.257812 33.5 90.792969 31.898438 93.367188 30.355469 C 95.941406 28.8125 98.550781 27.332031 101.199219 25.917969 C 103.84375 24.503906 106.523438 23.152344 109.238281 21.871094 C 111.949219 20.585938 114.691406 19.371094 117.464844 18.222656 C 120.238281 17.074219 123.039062 15.996094 125.863281 14.984375 C 128.6875 13.972656 131.539062 13.03125 134.410156 12.160156 C 137.28125 11.289062 140.171875 10.488281 143.082031 9.761719 C 145.996094 9.03125 148.921875 8.375 151.867188 7.789062 C 154.808594 7.203125 157.765625 6.691406 160.734375 6.25 C 163.703125 5.808594 166.679688 5.441406 169.667969 5.148438 C 172.652344 4.855469 175.644531 4.632812 178.640625 4.484375 C 181.640625 4.339844 184.640625 4.265625 187.640625 4.265625 C 190.640625 4.265625 193.640625 4.339844 196.636719 4.484375 C 199.636719 4.632812 202.628906 4.855469 205.613281 5.148438 C 208.601562 5.441406 211.578125 5.808594 214.546875 6.25 C 217.515625 6.691406 220.472656 7.203125 223.414062 7.789062 C 226.359375 8.375 229.285156 9.03125 232.195312 9.761719 C 235.109375 10.488281 238 11.289062 240.871094 12.160156 C 243.742188 13.03125 246.589844 13.972656 249.417969 14.984375 C 252.242188 15.996094 255.042969 17.074219 257.816406 18.222656 C 260.585938 19.371094 263.328125 20.585938 266.042969 21.871094 C 268.753906 23.152344 271.4375 24.503906 274.082031 25.917969 C 276.730469 27.332031 279.339844 28.8125 281.914062 30.355469 C 284.488281 31.898438 287.023438 33.5 289.519531 35.167969 C 292.011719 36.835938 294.464844 38.5625 296.875 40.351562 C 299.285156 42.140625 301.652344 43.984375 303.972656 45.890625 C 306.292969 47.792969 308.5625 49.753906 310.785156 51.769531 C 313.011719 53.785156 315.183594 55.851562 317.304688 57.972656 C 319.425781 60.097656 321.496094 62.269531 323.511719 64.492188 C 325.527344 66.714844 327.488281 68.988281 329.390625 71.308594 C 331.292969 73.628906 333.140625 75.992188 334.929688 78.402344 C 336.714844 80.8125 338.445312 83.265625 340.109375 85.761719 C 341.777344 88.257812 343.382812 90.792969 344.925781 93.367188 C 346.46875 95.941406 347.949219 98.550781 349.363281 101.199219 C 350.777344 103.84375 352.125 106.523438 353.410156 109.238281 C 354.691406 111.949219 355.90625 114.691406 357.054688 117.464844 C 358.203125 120.238281 359.285156 123.039062 360.296875 125.863281 C 361.304688 128.6875 362.246094 131.539062 363.117188 134.410156 C 363.988281 137.28125 364.789062 140.171875 365.519531 143.082031 C 366.25 145.996094 366.90625 148.921875 367.492188 151.867188 C 368.078125 154.808594 368.589844 157.765625 369.03125 160.734375 C 369.46875 163.703125 369.835938 166.679688 370.132812 169.667969 C 370.425781 172.652344 370.648438 175.644531 370.792969 178.640625 C 370.941406 181.640625 371.015625 184.640625 371.015625 187.640625 Z M 371.015625 187.640625 " clip-rule="nonzero"/></clipPath><linearGradient x1="0.0499054" gradientTransform="matrix(1.194625, 0, 0, 1.194625, 4.265026, 4.26499)" y1="307.049888" x2="307.050602" gradientUnits="userSpaceOnUse" y2="0.0506037" id="eeb2e8a2b8"><stop stop-opacity="1" stop-color="rgb(99.598694%, 75.299072%, 32.499695%)" offset="0"/><stop stop-opacity="1" stop-color="rgb(99.598694%, 75.299072%, 32.499695%)" offset="0.125"/><stop stop-opacity="1" stop-color="rgb(99.598694%, 75.299072%, 32.499695%)" offset="0.140625"/><stop stop-opacity="1" stop-color="rgb(99.583435%, 75.102234%, 32.473755%)" offset="0.144531"/><stop stop-opacity="1" stop-color="rgb(99.569702%, 74.906921%, 32.447815%)" offset="0.148437"/><stop stop-opacity="1" stop-color="rgb(99.514771%, 74.171448%, 32.351685%)" offset="0.152344"/><stop stop-opacity="1" stop-color="rgb(99.459839%, 73.435974%, 32.255554%)" offset="0.15625"/><stop stop-opacity="1" stop-color="rgb(99.404907%, 72.7005%, 32.159424%)" offset="0.160156"/><stop stop-opacity="1" stop-color="rgb(99.349976%, 71.965027%, 32.063293%)" offset="0.164062"/><stop stop-opacity="1" stop-color="rgb(99.295044%, 71.229553%, 31.967163%)" offset="0.167969"/><stop stop-opacity="1" stop-color="rgb(99.240112%, 70.49408%, 31.872559%)" offset="0.171875"/><stop stop-opacity="1" stop-color="rgb(99.185181%, 69.758606%, 31.776428%)" offset="0.175781"/><stop stop-opacity="1" stop-color="rgb(99.130249%, 69.023132%, 31.680298%)" offset="0.179687"/><stop stop-opacity="1" stop-color="rgb(99.073792%, 68.287659%, 31.584167%)" offset="0.183594"/><stop stop-opacity="1" stop-color="rgb(99.01886%, 67.552185%, 31.488037%)" offset="0.1875"/><stop stop-opacity="1" stop-color="rgb(98.963928%, 66.816711%, 31.391907%)" offset="0.191406"/><stop stop-opacity="1" stop-color="rgb(98.908997%, 66.081238%, 31.295776%)" offset="0.195312"/><stop stop-opacity="1" stop-color="rgb(98.854065%, 65.345764%, 31.199646%)" offset="0.199219"/><stop stop-opacity="1" stop-color="rgb(98.799133%, 64.611816%, 31.103516%)" offset="0.203125"/><stop stop-opacity="1" stop-color="rgb(98.744202%, 63.876343%, 31.007385%)" offset="0.207031"/><stop stop-opacity="1" stop-color="rgb(98.68927%, 63.140869%, 30.911255%)" offset="0.210937"/><stop stop-opacity="1" stop-color="rgb(98.634338%, 62.405396%, 30.815125%)" offset="0.214844"/><stop stop-opacity="1" stop-color="rgb(98.579407%, 61.669922%, 30.718994%)" offset="0.21875"/><stop stop-opacity="1" stop-color="rgb(98.524475%, 60.934448%, 30.622864%)" offset="0.222656"/><stop stop-opacity="1" stop-color="rgb(98.469543%, 60.198975%, 30.528259%)" offset="0.226562"/><stop stop-opacity="1" stop-color="rgb(98.414612%, 59.463501%, 30.432129%)" offset="0.230469"/><stop stop-opacity="1" stop-color="rgb(98.35968%, 58.728027%, 30.335999%)" offset="0.234375"/><stop stop-opacity="1" stop-color="rgb(98.303223%, 57.992554%, 30.239868%)" offset="0.238281"/><stop stop-opacity="1" stop-color="rgb(98.248291%, 57.25708%, 30.143738%)" offset="0.242188"/><stop stop-opacity="1" stop-color="rgb(98.193359%, 56.521606%, 30.047607%)" offset="0.246094"/><stop stop-opacity="1" stop-color="rgb(98.138428%, 55.786133%, 29.951477%)" offset="0.25"/><stop stop-opacity="1" stop-color="rgb(98.083496%, 55.050659%, 29.855347%)" offset="0.253906"/><stop stop-opacity="1" stop-color="rgb(98.028564%, 54.315186%, 29.759216%)" offset="0.257812"/><stop stop-opacity="1" stop-color="rgb(97.973633%, 53.579712%, 29.663086%)" offset="0.261719"/><stop stop-opacity="1" stop-color="rgb(97.918701%, 52.845764%, 29.566956%)" offset="0.265625"/><stop stop-opacity="1" stop-color="rgb(97.86377%, 52.110291%, 29.470825%)" offset="0.269531"/><stop stop-opacity="1" stop-color="rgb(97.808838%, 51.374817%, 29.374695%)" offset="0.273438"/><stop stop-opacity="1" stop-color="rgb(97.753906%, 50.639343%, 29.278564%)" offset="0.277344"/><stop stop-opacity="1" stop-color="rgb(97.698975%, 49.90387%, 29.18396%)" offset="0.28125"/><stop stop-opacity="1" stop-color="rgb(97.644043%, 49.168396%, 29.08783%)" offset="0.285156"/><stop stop-opacity="1" stop-color="rgb(97.589111%, 48.432922%, 28.991699%)" offset="0.289062"/><stop stop-opacity="1" stop-color="rgb(97.532654%, 47.697449%, 28.895569%)" offset="0.292969"/><stop stop-opacity="1" stop-color="rgb(97.477722%, 46.961975%, 28.799438%)" offset="0.296875"/><stop stop-opacity="1" stop-color="rgb(97.422791%, 46.226501%, 28.703308%)" offset="0.300781"/><stop stop-opacity="1" stop-color="rgb(97.367859%, 45.491028%, 28.607178%)" offset="0.304687"/><stop stop-opacity="1" stop-color="rgb(97.312927%, 44.755554%, 28.511047%)" offset="0.308594"/><stop stop-opacity="1" stop-color="rgb(97.257996%, 44.020081%, 28.414917%)" offset="0.3125"/><stop stop-opacity="1" stop-color="rgb(97.203064%, 43.284607%, 28.318787%)" offset="0.316406"/><stop stop-opacity="1" stop-color="rgb(97.148132%, 42.549133%, 28.222656%)" offset="0.320312"/><stop stop-opacity="1" stop-color="rgb(97.093201%, 41.81366%, 28.126526%)" offset="0.324219"/><stop stop-opacity="1" stop-color="rgb(97.038269%, 41.079712%, 28.030396%)" offset="0.328125"/><stop stop-opacity="1" stop-color="rgb(96.983337%, 40.344238%, 27.934265%)" offset="0.332031"/><stop stop-opacity="1" stop-color="rgb(96.928406%, 39.608765%, 27.839661%)" offset="0.335938"/><stop stop-opacity="1" stop-color="rgb(96.873474%, 38.873291%, 27.74353%)" offset="0.339844"/><stop stop-opacity="1" stop-color="rgb(96.818542%, 38.137817%, 27.6474%)" offset="0.34375"/><stop stop-opacity="1" stop-color="rgb(96.763611%, 37.402344%, 27.55127%)" offset="0.347656"/><stop stop-opacity="1" stop-color="rgb(96.708679%, 36.66687%, 27.455139%)" offset="0.351562"/><stop stop-opacity="1" stop-color="rgb(96.652222%, 35.931396%, 27.359009%)" offset="0.355469"/><stop stop-opacity="1" stop-color="rgb(96.59729%, 35.195923%, 27.262878%)" offset="0.359375"/><stop stop-opacity="1" stop-color="rgb(96.542358%, 34.460449%, 27.166748%)" offset="0.363281"/><stop stop-opacity="1" stop-color="rgb(96.487427%, 33.724976%, 27.070618%)" offset="0.367188"/><stop stop-opacity="1" stop-color="rgb(96.432495%, 32.989502%, 26.974487%)" offset="0.371094"/><stop stop-opacity="1" stop-color="rgb(96.377563%, 32.254028%, 26.878357%)" offset="0.375"/><stop stop-opacity="1" stop-color="rgb(96.322632%, 31.518555%, 26.782227%)" offset="0.378906"/><stop stop-opacity="1" stop-color="rgb(96.2677%, 30.783081%, 26.686096%)" offset="0.382812"/><stop stop-opacity="1" stop-color="rgb(96.212769%, 30.047607%, 26.589966%)" offset="0.386719"/><stop stop-opacity="1" stop-color="rgb(96.157837%, 29.312134%, 26.495361%)" offset="0.390625"/><stop stop-opacity="1" stop-color="rgb(96.102905%, 28.57666%, 26.399231%)" offset="0.394531"/><stop stop-opacity="1" stop-color="rgb(96.047974%, 27.842712%, 26.303101%)" offset="0.398438"/><stop stop-opacity="1" stop-color="rgb(95.993042%, 27.107239%, 26.20697%)" offset="0.402344"/><stop stop-opacity="1" stop-color="rgb(95.93811%, 26.371765%, 26.11084%)" offset="0.40625"/><stop stop-opacity="1" stop-color="rgb(95.881653%, 25.636292%, 26.014709%)" offset="0.410156"/><stop stop-opacity="1" stop-color="rgb(95.826721%, 24.900818%, 25.918579%)" offset="0.414062"/><stop stop-opacity="1" stop-color="rgb(95.77179%, 24.165344%, 25.822449%)" offset="0.417969"/><stop stop-opacity="1" stop-color="rgb(95.716858%, 23.429871%, 25.726318%)" offset="0.421875"/><stop stop-opacity="1" stop-color="rgb(95.661926%, 22.694397%, 25.630188%)" offset="0.425781"/><stop stop-opacity="1" stop-color="rgb(95.606995%, 21.958923%, 25.534058%)" offset="0.429687"/><stop stop-opacity="1" stop-color="rgb(95.552063%, 21.22345%, 25.437927%)" offset="0.433594"/><stop stop-opacity="1" stop-color="rgb(95.497131%, 20.487976%, 25.341797%)" offset="0.4375"/><stop stop-opacity="1" stop-color="rgb(95.4422%, 19.752502%, 25.245667%)" offset="0.441406"/><stop stop-opacity="1" stop-color="rgb(95.387268%, 19.017029%, 25.151062%)" offset="0.445313"/><stop stop-opacity="1" stop-color="rgb(95.332336%, 18.281555%, 25.054932%)" offset="0.449219"/><stop stop-opacity="1" stop-color="rgb(95.277405%, 17.546082%, 24.958801%)" offset="0.453125"/><stop stop-opacity="1" stop-color="rgb(95.222473%, 16.810608%, 24.862671%)" offset="0.457031"/><stop stop-opacity="1" stop-color="rgb(95.167542%, 16.07666%, 24.766541%)" offset="0.460938"/><stop stop-opacity="1" stop-color="rgb(95.111084%, 15.341187%, 24.67041%)" offset="0.464844"/><stop stop-opacity="1" stop-color="rgb(95.056152%, 14.605713%, 24.57428%)" offset="0.46875"/><stop stop-opacity="1" stop-color="rgb(95.001221%, 13.870239%, 24.478149%)" offset="0.472656"/><stop stop-opacity="1" stop-color="rgb(94.946289%, 13.134766%, 24.382019%)" offset="0.476562"/><stop stop-opacity="1" stop-color="rgb(94.621277%, 12.812805%, 24.882507%)" offset="0.480469"/><stop stop-opacity="1" stop-color="rgb(94.297791%, 12.490845%, 25.382996%)" offset="0.484375"/><stop stop-opacity="1" stop-color="rgb(93.766785%, 12.483215%, 26.33667%)" offset="0.488281"/><stop stop-opacity="1" stop-color="rgb(93.237305%, 12.477112%, 27.29187%)" offset="0.492188"/><stop stop-opacity="1" stop-color="rgb(92.707825%, 12.469482%, 28.245544%)" offset="0.496094"/><stop stop-opacity="1" stop-color="rgb(92.178345%, 12.463379%, 29.199219%)" offset="0.5"/><stop stop-opacity="1" stop-color="rgb(91.648865%, 12.45575%, 30.152893%)" offset="0.503906"/><stop stop-opacity="1" stop-color="rgb(91.119385%, 12.449646%, 31.108093%)" offset="0.507812"/><stop stop-opacity="1" stop-color="rgb(90.588379%, 12.442017%, 32.061768%)" offset="0.511719"/><stop stop-opacity="1" stop-color="rgb(90.058899%, 12.435913%, 33.015442%)" offset="0.515625"/><stop stop-opacity="1" stop-color="rgb(89.529419%, 12.428284%, 33.969116%)" offset="0.519531"/><stop stop-opacity="1" stop-color="rgb(88.999939%, 12.42218%, 34.924316%)" offset="0.523438"/><stop stop-opacity="1" stop-color="rgb(88.468933%, 12.414551%, 35.877991%)" offset="0.527344"/><stop stop-opacity="1" stop-color="rgb(87.939453%, 12.408447%, 36.831665%)" offset="0.53125"/><stop stop-opacity="1" stop-color="rgb(87.409973%, 12.400818%, 37.785339%)" offset="0.535156"/><stop stop-opacity="1" stop-color="rgb(86.880493%, 12.394714%, 38.74054%)" offset="0.539062"/><stop stop-opacity="1" stop-color="rgb(86.351013%, 12.387085%, 39.694214%)" offset="0.542969"/><stop stop-opacity="1" stop-color="rgb(85.821533%, 12.380981%, 40.647888%)" offset="0.546875"/><stop stop-opacity="1" stop-color="rgb(85.290527%, 12.373352%, 41.601562%)" offset="0.550781"/><stop stop-opacity="1" stop-color="rgb(84.761047%, 12.367249%, 42.556763%)" offset="0.554688"/><stop stop-opacity="1" stop-color="rgb(84.231567%, 12.359619%, 43.510437%)" offset="0.558594"/><stop stop-opacity="1" stop-color="rgb(83.702087%, 12.353516%, 44.464111%)" offset="0.5625"/><stop stop-opacity="1" stop-color="rgb(83.171082%, 12.345886%, 45.417786%)" offset="0.566406"/><stop stop-opacity="1" stop-color="rgb(82.641602%, 12.339783%, 46.372986%)" offset="0.570312"/><stop stop-opacity="1" stop-color="rgb(82.112122%, 12.332153%, 47.32666%)" offset="0.574219"/><stop stop-opacity="1" stop-color="rgb(81.582642%, 12.32605%, 48.280334%)" offset="0.578125"/><stop stop-opacity="1" stop-color="rgb(81.053162%, 12.31842%, 49.234009%)" offset="0.582031"/><stop stop-opacity="1" stop-color="rgb(80.523682%, 12.312317%, 50.189209%)" offset="0.585938"/><stop stop-opacity="1" stop-color="rgb(79.992676%, 12.304688%, 51.142883%)" offset="0.589844"/><stop stop-opacity="1" stop-color="rgb(79.463196%, 12.298584%, 52.096558%)" offset="0.59375"/><stop stop-opacity="1" stop-color="rgb(78.933716%, 12.290955%, 53.050232%)" offset="0.597656"/><stop stop-opacity="1" stop-color="rgb(78.404236%, 12.284851%, 54.005432%)" offset="0.601562"/><stop stop-opacity="1" stop-color="rgb(77.874756%, 12.277222%, 54.959106%)" offset="0.605469"/><stop stop-opacity="1" stop-color="rgb(77.345276%, 12.271118%, 55.912781%)" offset="0.609375"/><stop stop-opacity="1" stop-color="rgb(76.81427%, 12.263489%, 56.866455%)" offset="0.613281"/><stop stop-opacity="1" stop-color="rgb(76.28479%, 12.257385%, 57.821655%)" offset="0.617188"/><stop stop-opacity="1" stop-color="rgb(75.75531%, 12.249756%, 58.77533%)" offset="0.621094"/><stop stop-opacity="1" stop-color="rgb(75.22583%, 12.243652%, 59.729004%)" offset="0.625"/><stop stop-opacity="1" stop-color="rgb(74.694824%, 12.236023%, 60.682678%)" offset="0.628906"/><stop stop-opacity="1" stop-color="rgb(74.165344%, 12.229919%, 61.637878%)" offset="0.632812"/><stop stop-opacity="1" stop-color="rgb(73.635864%, 12.22229%, 62.591553%)" offset="0.636719"/><stop stop-opacity="1" stop-color="rgb(73.106384%, 12.216187%, 63.545227%)" offset="0.640625"/><stop stop-opacity="1" stop-color="rgb(72.576904%, 12.208557%, 64.498901%)" offset="0.644531"/><stop stop-opacity="1" stop-color="rgb(72.047424%, 12.202454%, 65.454102%)" offset="0.648438"/><stop stop-opacity="1" stop-color="rgb(71.342468%, 12.489319%, 65.942383%)" offset="0.652344"/><stop stop-opacity="1" stop-color="rgb(70.639038%, 12.77771%, 66.430664%)" offset="0.65625"/><stop stop-opacity="1" stop-color="rgb(69.882202%, 13.154602%, 66.777039%)" offset="0.660156"/><stop stop-opacity="1" stop-color="rgb(69.125366%, 13.53302%, 67.123413%)" offset="0.664062"/><stop stop-opacity="1" stop-color="rgb(68.36853%, 13.909912%, 67.469788%)" offset="0.667969"/><stop stop-opacity="1" stop-color="rgb(67.611694%, 14.28833%, 67.817688%)" offset="0.671875"/><stop stop-opacity="1" stop-color="rgb(66.854858%, 14.665222%, 68.164062%)" offset="0.675781"/><stop stop-opacity="1" stop-color="rgb(66.098022%, 15.042114%, 68.510437%)" offset="0.679688"/><stop stop-opacity="1" stop-color="rgb(65.341187%, 15.419006%, 68.856812%)" offset="0.683594"/><stop stop-opacity="1" stop-color="rgb(64.584351%, 15.797424%, 69.203186%)" offset="0.6875"/><stop stop-opacity="1" stop-color="rgb(63.827515%, 16.174316%, 69.549561%)" offset="0.691406"/><stop stop-opacity="1" stop-color="rgb(63.070679%, 16.552734%, 69.897461%)" offset="0.695312"/><stop stop-opacity="1" stop-color="rgb(62.313843%, 16.929626%, 70.243835%)" offset="0.699219"/><stop stop-opacity="1" stop-color="rgb(61.557007%, 17.308044%, 70.59021%)" offset="0.703125"/><stop stop-opacity="1" stop-color="rgb(60.800171%, 17.684937%, 70.936584%)" offset="0.707031"/><stop stop-opacity="1" stop-color="rgb(60.043335%, 18.061829%, 71.282959%)" offset="0.710938"/><stop stop-opacity="1" stop-color="rgb(59.286499%, 18.438721%, 71.629333%)" offset="0.714844"/><stop stop-opacity="1" stop-color="rgb(58.529663%, 18.817139%, 71.977234%)" offset="0.71875"/><stop stop-opacity="1" stop-color="rgb(57.772827%, 19.194031%, 72.323608%)" offset="0.722656"/><stop stop-opacity="1" stop-color="rgb(57.015991%, 19.572449%, 72.669983%)" offset="0.726562"/><stop stop-opacity="1" stop-color="rgb(56.259155%, 19.949341%, 73.016357%)" offset="0.730469"/><stop stop-opacity="1" stop-color="rgb(55.502319%, 20.326233%, 73.362732%)" offset="0.734375"/><stop stop-opacity="1" stop-color="rgb(54.745483%, 20.703125%, 73.709106%)" offset="0.738281"/><stop stop-opacity="1" stop-color="rgb(53.988647%, 21.081543%, 74.057007%)" offset="0.742187"/><stop stop-opacity="1" stop-color="rgb(53.231812%, 21.458435%, 74.403381%)" offset="0.746094"/><stop stop-opacity="1" stop-color="rgb(52.474976%, 21.836853%, 74.749756%)" offset="0.75"/><stop stop-opacity="1" stop-color="rgb(51.71814%, 22.213745%, 75.09613%)" offset="0.753906"/><stop stop-opacity="1" stop-color="rgb(50.961304%, 22.592163%, 75.444031%)" offset="0.757812"/><stop stop-opacity="1" stop-color="rgb(50.204468%, 22.969055%, 75.790405%)" offset="0.761719"/><stop stop-opacity="1" stop-color="rgb(49.447632%, 23.345947%, 76.13678%)" offset="0.765625"/><stop stop-opacity="1" stop-color="rgb(48.690796%, 23.722839%, 76.483154%)" offset="0.769531"/><stop stop-opacity="1" stop-color="rgb(47.93396%, 24.101257%, 76.829529%)" offset="0.773437"/><stop stop-opacity="1" stop-color="rgb(47.177124%, 24.478149%, 77.175903%)" offset="0.777344"/><stop stop-opacity="1" stop-color="rgb(46.420288%, 24.856567%, 77.523804%)" offset="0.78125"/><stop stop-opacity="1" stop-color="rgb(45.663452%, 25.233459%, 77.870178%)" offset="0.785156"/><stop stop-opacity="1" stop-color="rgb(44.906616%, 25.611877%, 78.216553%)" offset="0.789062"/><stop stop-opacity="1" stop-color="rgb(44.14978%, 25.98877%, 78.562927%)" offset="0.792969"/><stop stop-opacity="1" stop-color="rgb(43.392944%, 26.365662%, 78.909302%)" offset="0.796875"/><stop stop-opacity="1" stop-color="rgb(42.636108%, 26.742554%, 79.255676%)" offset="0.800781"/><stop stop-opacity="1" stop-color="rgb(41.879272%, 27.120972%, 79.603577%)" offset="0.804688"/><stop stop-opacity="1" stop-color="rgb(41.122437%, 27.497864%, 79.949951%)" offset="0.808594"/><stop stop-opacity="1" stop-color="rgb(40.365601%, 27.876282%, 80.296326%)" offset="0.8125"/><stop stop-opacity="1" stop-color="rgb(39.608765%, 28.253174%, 80.6427%)" offset="0.816406"/><stop stop-opacity="1" stop-color="rgb(38.851929%, 28.631592%, 80.989075%)" offset="0.820312"/><stop stop-opacity="1" stop-color="rgb(38.095093%, 29.008484%, 81.335449%)" offset="0.824219"/><stop stop-opacity="1" stop-color="rgb(37.338257%, 29.385376%, 81.68335%)" offset="0.828125"/><stop stop-opacity="1" stop-color="rgb(36.581421%, 29.762268%, 82.029724%)" offset="0.832031"/><stop stop-opacity="1" stop-color="rgb(35.824585%, 30.140686%, 82.376099%)" offset="0.835938"/><stop stop-opacity="1" stop-color="rgb(35.067749%, 30.517578%, 82.722473%)" offset="0.839844"/><stop stop-opacity="1" stop-color="rgb(34.310913%, 30.895996%, 83.068848%)" offset="0.84375"/><stop stop-opacity="1" stop-color="rgb(33.554077%, 31.272888%, 83.415222%)" offset="0.847656"/><stop stop-opacity="1" stop-color="rgb(32.797241%, 31.651306%, 83.763123%)" offset="0.851562"/><stop stop-opacity="1" stop-color="rgb(32.647705%, 31.724548%, 83.830261%)" offset="0.859375"/><stop stop-opacity="1" stop-color="rgb(32.499695%, 31.799316%, 83.898926%)" offset="0.875"/><stop stop-opacity="1" stop-color="rgb(32.499695%, 31.799316%, 83.898926%)" offset="1"/></linearGradient></defs><g clip-path="url(#eff4516e53)"><g clip-path="url(#30e9a12db4)"><path fill="url(#eeb2e8a2b8)" d="M 4.265625 4.265625 L 4.265625 371.015625 L 371.015625 371.015625 L 371.015625 4.265625 Z M 4.265625 4.265625 " fill-rule="nonzero"/></g></g><path fill="#ffffff" d="M 236.839844 298.308594 L 139.078125 298.308594 C 105.1875 298.308594 77.613281 270.734375 77.613281 236.839844 L 77.613281 139.078125 C 77.613281 105.1875 105.1875 77.613281 139.078125 77.613281 L 236.839844 77.613281 C 270.734375 77.613281 298.308594 105.1875 298.308594 139.078125 L 298.308594 236.839844 C 298.308594 270.734375 270.734375 298.308594 236.839844 298.308594 Z M 139.078125 92.554688 C 113.425781 92.554688 92.554688 113.425781 92.554688 139.078125 L 92.554688 236.839844 C 92.554688 262.492188 113.425781 283.367188 139.078125 283.367188 L 236.839844 283.367188 C 262.492188 283.367188 283.367188 262.492188 283.367188 236.839844 L 283.367188 139.078125 C 283.367188 113.425781 262.492188 92.554688 236.839844 92.554688 Z M 139.078125 92.554688 " fill-opacity="1" fill-rule="nonzero"/><path fill="#ffffff" d="M 187.964844 242.625 C 157.824219 242.625 133.304688 218.105469 133.304688 187.964844 C 133.304688 157.824219 157.824219 133.304688 187.964844 133.304688 C 218.105469 133.304688 242.625 157.824219 242.625 187.964844 C 242.625 218.105469 218.105469 242.625 187.964844 242.625 Z M 187.964844 148.238281 C 166.0625 148.238281 148.242188 166.058594 148.242188 187.960938 C 148.242188 209.863281 166.066406 227.679688 187.964844 227.679688 C 209.863281 227.679688 227.683594 209.863281 227.683594 187.960938 C 227.683594 166.058594 209.867188 148.238281 187.964844 148.238281 Z M 187.964844 148.238281 " fill-opacity="1" fill-rule="nonzero"/></svg>