<svg xmlns="http://www.w3.org/2000/svg" xmlns:xlink="http://www.w3.org/1999/xlink" width="500" zoomAndPan="magnify" viewBox="0 0 375 374.999991" height="500" preserveAspectRatio="xMidYMid meet" version="1.0"><defs><clipPath id="b7de1f7efd"><path d="M 43.355469 64.796875 L 331.355469 64.796875 L 331.355469 310.046875 L 43.355469 310.046875 Z M 43.355469 64.796875 " clip-rule="nonzero"/></clipPath></defs><rect x="-37.5" width="450" fill="#ffffff" y="-37.499999" height="449.999989" fill-opacity="1"/><rect x="-37.5" width="450" fill="#2c4e98" y="-37.499999" height="449.999989" fill-opacity="1"/><g clip-path="url(#b7de1f7efd)"><path fill="#ffffff" d="M 234.433594 310.152344 L 239.816406 310.152344 C 295.25 310.152344 331.636719 287.816406 331.636719 242.71875 L 331.636719 242.296875 C 331.636719 209.199219 314.257812 192.667969 285.726562 181.90625 C 303.109375 171.996094 317.976562 156.667969 317.976562 128.953125 L 317.976562 128.527344 C 317.976562 111.570312 312.167969 97.90625 301.019531 86.757812 C 286.964844 72.703125 265.019531 64.84375 236.914062 64.84375 L 123.179688 64.84375 L 123.179688 246.011719 L 175.710938 246.011719 L 175.710938 208.773438 L 238.152344 208.773438 C 265.867188 208.773438 277.867188 219.109375 277.867188 235.675781 L 277.867188 236.101562 C 277.867188 254.296875 263.816406 263.003906 239.816406 263.003906 L 234.433594 263.003906 Z M 175.710938 164.136719 L 175.710938 112.421875 L 229.054688 112.421875 C 251.816406 112.421875 264.207031 121.519531 264.207031 137.660156 L 264.207031 138.085938 C 264.207031 156.277344 249.300781 164.136719 225.339844 164.136719 Z M 43.355469 310.152344 L 219.570312 310.152344 L 219.570312 260.914062 L 97.125 260.914062 L 97.125 64.84375 L 43.355469 64.84375 Z M 43.355469 310.152344 " fill-opacity="1" fill-rule="evenodd"/></g></svg>