<svg width="59" height="59" viewBox="0 0 59 59" fill="none" xmlns="http://www.w3.org/2000/svg">
<g clip-path="url(#clip0_57_19)">
<mask id="mask0_57_19" style="mask-type:luminance" maskUnits="userSpaceOnUse" x="0" y="4" width="59" height="51">
<path d="M0 4.38812H59V54.6561H0V4.38812Z" fill="white"/>
</mask>
<g mask="url(#mask0_57_19)">
<path fill-rule="evenodd" clip-rule="evenodd" d="M39.1066 54.6028H40.2073C51.5525 54.6028 59 50.0315 59 40.8017V40.7151C59 33.9411 55.4428 30.5579 49.6036 28.3558C53.1608 26.3271 56.2036 23.1902 56.2036 17.5176V17.431C56.2036 13.9604 55.0157 11.1641 52.7337 8.88211C49.8575 6.00586 45.3655 4.3975 39.6136 4.3975H16.3369V41.4753H27.0878V33.8539H39.8668C45.5394 33.8539 47.9953 35.9699 47.9953 39.3599V39.4472C47.9953 43.1709 45.1196 44.9526 40.2073 44.9526H39.1066V54.6028ZM27.0878 24.7187V14.1343H38.0052C42.6631 14.1343 45.1989 15.9965 45.1989 19.2999V19.3866C45.1989 23.1103 42.1494 24.7187 37.2444 24.7187H27.0878ZM0 54.6028H36.0637V44.5255H11.0047V4.3975H0V54.6028Z" fill="white"/>
</g>
</g>
<defs>
<clipPath id="clip0_57_19">
<rect width="59" height="59" fill="white"/>
</clipPath>
</defs>
</svg>
