<svg xmlns="http://www.w3.org/2000/svg" xmlns:xlink="http://www.w3.org/1999/xlink" width="500" zoomAndPan="magnify" viewBox="0 0 375 374.999991" height="500" preserveAspectRatio="xMidYMid meet" version="1.0"><defs><clipPath id="033e5662a4"><path d="M 0 17.726562 L 375 17.726562 L 375 357.476562 L 0 357.476562 Z M 0 17.726562 " clip-rule="nonzero"/></clipPath></defs><path fill="#ffffff" d="M 213.394531 315.085938 L 202.382812 315.085938 C 200.734375 315.085938 199.40625 316.417969 199.40625 318.0625 C 199.40625 319.707031 200.734375 321.039062 202.382812 321.039062 L 213.394531 321.039062 C 215.039062 321.039062 216.367188 319.707031 216.367188 318.0625 C 216.367188 316.417969 215.039062 315.085938 213.394531 315.085938 Z M 213.394531 315.085938 " fill-opacity="1" fill-rule="nonzero"/><path fill="#ffffff" d="M 281.132812 120.621094 L 198.511719 120.621094 C 196.867188 120.621094 195.535156 121.957031 195.535156 123.597656 L 195.535156 218.0625 C 195.535156 219.707031 196.867188 221.039062 198.511719 221.039062 L 281.132812 221.039062 C 282.777344 221.039062 284.105469 219.707031 284.105469 218.0625 L 284.105469 123.597656 C 284.105469 121.957031 282.777344 120.621094 281.132812 120.621094 Z M 278.15625 167.855469 L 242.796875 167.855469 L 242.796875 126.574219 L 278.15625 126.574219 Z M 236.84375 126.574219 L 236.84375 167.855469 L 201.488281 167.855469 L 201.488281 126.574219 Z M 201.488281 173.804688 L 236.84375 173.804688 L 236.84375 215.085938 L 201.488281 215.085938 Z M 242.796875 215.085938 L 242.796875 173.804688 L 278.15625 173.804688 L 278.15625 215.085938 Z M 242.796875 215.085938 " fill-opacity="1" fill-rule="nonzero"/><g clip-path="url(#033e5662a4)"><path fill="#ffffff" d="M 375 134.730469 C 375 128.324219 370.722656 122.578125 364.601562 120.746094 C 364.324219 120.664062 364.039062 120.621094 363.75 120.621094 L 297.886719 120.621094 L 297.886719 81.320312 C 304.382812 78.804688 308.898438 72.417969 308.898438 65.265625 C 308.898438 57.296875 303.292969 50.242188 295.570312 48.492188 C 295.355469 48.441406 295.132812 48.417969 294.910156 48.417969 L 231.445312 48.417969 C 224.53125 30.058594 207.15625 17.855469 187.5 17.855469 C 167.84375 17.855469 150.46875 30.058594 143.554688 48.417969 L 80.089844 48.417969 C 79.867188 48.417969 79.648438 48.441406 79.429688 48.492188 C 71.707031 50.242188 66.101562 57.296875 66.101562 65.265625 C 66.101562 72.417969 70.617188 78.804688 77.113281 81.320312 L 77.113281 120.621094 L 11.25 120.621094 C 10.960938 120.621094 10.675781 120.664062 10.398438 120.746094 C 4.277344 122.578125 0 128.324219 0 134.730469 C 0 140.375 3.3125 145.488281 8.273438 147.863281 L 8.273438 331.933594 C 8.273438 333.582031 9.605469 334.910156 11.25 334.910156 L 77.113281 334.910156 L 77.113281 354.164062 C 77.113281 355.808594 78.445312 357.140625 80.089844 357.140625 L 294.910156 357.140625 C 296.554688 357.140625 297.886719 355.808594 297.886719 354.164062 L 297.886719 334.90625 L 363.75 334.90625 C 365.394531 334.90625 366.726562 333.578125 366.726562 331.929688 L 366.726562 147.863281 C 371.6875 145.488281 375 140.375 375 134.730469 Z M 187.5 23.804688 C 205.300781 23.804688 220.992188 35.265625 226.542969 52.316406 C 227.90625 56.496094 228.597656 60.851562 228.597656 65.265625 C 228.597656 69.695312 227.90625 74.0625 226.542969 78.242188 C 220.992188 95.292969 205.300781 106.753906 187.5 106.753906 C 169.699219 106.753906 154.007812 95.292969 148.457031 78.242188 C 147.09375 74.0625 146.402344 69.695312 146.402344 65.265625 C 146.402344 60.851562 147.09375 56.496094 148.457031 52.316406 C 154.007812 35.265625 169.699219 23.804688 187.5 23.804688 Z M 14.226562 328.957031 L 14.226562 148.804688 L 77.113281 148.804688 L 77.113281 328.957031 Z M 190.476562 273.804688 L 225.832031 273.804688 L 225.832031 351.1875 L 190.476562 351.1875 Z M 184.523438 351.1875 L 149.167969 351.1875 L 149.167969 273.804688 L 184.523438 273.804688 Z M 291.933594 351.1875 L 231.785156 351.1875 L 231.785156 270.832031 C 231.785156 269.183594 230.457031 267.855469 228.808594 267.855469 L 146.191406 267.855469 C 144.542969 267.855469 143.214844 269.183594 143.214844 270.832031 L 143.214844 351.1875 L 83.066406 351.1875 L 83.066406 82.140625 L 143.554688 82.140625 C 150.46875 100.5 167.84375 112.707031 187.5 112.707031 C 207.15625 112.707031 224.53125 100.5 231.445312 82.140625 L 291.933594 82.140625 Z M 297.886719 328.957031 L 297.886719 148.804688 L 360.773438 148.804688 L 360.773438 328.957031 Z M 297.886719 328.957031 " fill-opacity="1" fill-rule="nonzero"/></g><path fill="#ffffff" d="M 347.230469 159.519531 L 311.429688 159.519531 C 309.78125 159.519531 308.453125 160.855469 308.453125 162.496094 L 308.453125 295.832031 C 308.453125 297.476562 309.78125 298.804688 311.429688 298.804688 L 347.230469 298.804688 C 348.878906 298.804688 350.207031 297.476562 350.207031 295.832031 L 350.207031 162.496094 C 350.207031 160.855469 348.878906 159.519531 347.230469 159.519531 Z M 314.40625 198.804688 L 344.257812 198.804688 L 344.257812 226.1875 L 314.40625 226.1875 Z M 314.40625 232.140625 L 344.257812 232.140625 L 344.257812 259.519531 L 314.40625 259.519531 Z M 344.257812 165.472656 L 344.257812 192.855469 L 314.40625 192.855469 L 314.40625 165.472656 Z M 314.40625 292.855469 L 314.40625 265.472656 L 344.257812 265.472656 L 344.257812 292.855469 Z M 314.40625 292.855469 " fill-opacity="1" fill-rule="nonzero"/><path fill="#ffffff" d="M 161.605469 321.039062 L 172.617188 321.039062 C 174.265625 321.039062 175.59375 319.707031 175.59375 318.0625 C 175.59375 316.417969 174.265625 315.085938 172.617188 315.085938 L 161.605469 315.085938 C 159.960938 315.085938 158.632812 316.417969 158.632812 318.0625 C 158.632812 319.707031 159.960938 321.039062 161.605469 321.039062 Z M 161.605469 321.039062 " fill-opacity="1" fill-rule="nonzero"/><path fill="#ffffff" d="M 176.488281 120.621094 L 93.867188 120.621094 C 92.222656 120.621094 90.894531 121.957031 90.894531 123.597656 L 90.894531 218.0625 C 90.894531 219.707031 92.222656 221.039062 93.867188 221.039062 L 176.488281 221.039062 C 178.132812 221.039062 179.464844 219.707031 179.464844 218.0625 L 179.464844 123.597656 C 179.464844 121.957031 178.132812 120.621094 176.488281 120.621094 Z M 173.511719 167.855469 L 138.15625 167.855469 L 138.15625 126.574219 L 173.511719 126.574219 Z M 132.203125 126.574219 L 132.203125 167.855469 L 96.84375 167.855469 L 96.84375 126.574219 Z M 96.84375 173.804688 L 132.203125 173.804688 L 132.203125 215.085938 L 96.84375 215.085938 Z M 138.15625 215.085938 L 138.15625 173.804688 L 173.511719 173.804688 L 173.511719 215.085938 Z M 138.15625 215.085938 " fill-opacity="1" fill-rule="nonzero"/><path fill="#ffffff" d="M 63.570312 159.519531 L 27.769531 159.519531 C 26.121094 159.519531 24.792969 160.855469 24.792969 162.496094 L 24.792969 295.832031 C 24.792969 297.476562 26.121094 298.804688 27.769531 298.804688 L 63.570312 298.804688 C 65.21875 298.804688 66.546875 297.476562 66.546875 295.832031 L 66.546875 162.496094 C 66.546875 160.855469 65.21875 159.519531 63.570312 159.519531 Z M 30.742188 198.804688 L 60.59375 198.804688 L 60.59375 226.1875 L 30.742188 226.1875 Z M 30.742188 232.140625 L 60.59375 232.140625 L 60.59375 259.519531 L 30.742188 259.519531 Z M 60.59375 165.472656 L 60.59375 192.855469 L 30.742188 192.855469 L 30.742188 165.472656 Z M 30.742188 292.855469 L 30.742188 265.472656 L 60.59375 265.472656 L 60.59375 292.855469 Z M 30.742188 292.855469 " fill-opacity="1" fill-rule="nonzero"/><path fill="#ffffff" d="M 160.089844 77.4375 L 175.417969 77.4375 L 175.417969 92.941406 C 175.417969 94.585938 176.746094 95.917969 178.394531 95.917969 L 196.726562 95.917969 C 198.371094 95.917969 199.703125 94.585938 199.703125 92.941406 L 199.703125 77.4375 L 215.03125 77.4375 C 216.675781 77.4375 218.007812 76.105469 218.007812 74.460938 L 218.007812 55.980469 C 218.007812 54.335938 216.675781 53.003906 215.03125 53.003906 L 199.703125 53.003906 L 199.703125 37.496094 C 199.703125 35.855469 198.371094 34.519531 196.726562 34.519531 L 178.394531 34.519531 C 176.746094 34.519531 175.417969 35.855469 175.417969 37.496094 L 175.417969 53.003906 L 160.089844 53.003906 C 158.445312 53.003906 157.113281 54.335938 157.113281 55.980469 L 157.113281 74.460938 C 157.113281 76.105469 158.445312 77.4375 160.089844 77.4375 Z M 160.089844 77.4375 " fill-opacity="1" fill-rule="nonzero"/></svg>