<svg xmlns="http://www.w3.org/2000/svg" xmlns:xlink="http://www.w3.org/1999/xlink" width="500" zoomAndPan="magnify" viewBox="0 0 375 374.999991" height="500" preserveAspectRatio="xMidYMid meet" version="1.0"><defs><clipPath id="d7eff8da37"><path d="M 0 17.109375 L 375 17.109375 L 375 86 L 0 86 Z M 0 17.109375 " clip-rule="nonzero"/></clipPath><clipPath id="8b3ca0b66c"><path d="M 0 289 L 375 289 L 375 357.609375 L 0 357.609375 Z M 0 289 " clip-rule="nonzero"/></clipPath></defs><g clip-path="url(#d7eff8da37)"><path fill="#ffffff" d="M 34.148438 85.265625 L 340.851562 85.265625 C 341.96875 85.265625 343.082031 85.210938 344.191406 85.101562 C 345.300781 84.992188 346.40625 84.828125 347.5 84.609375 C 348.59375 84.394531 349.675781 84.121094 350.742188 83.796875 C 351.8125 83.472656 352.863281 83.097656 353.894531 82.671875 C 354.921875 82.246094 355.929688 81.769531 356.914062 81.242188 C 357.898438 80.714844 358.855469 80.140625 359.785156 79.523438 C 360.710938 78.902344 361.609375 78.238281 362.46875 77.53125 C 363.332031 76.820312 364.160156 76.074219 364.949219 75.285156 C 365.738281 74.496094 366.484375 73.667969 367.195312 72.804688 C 367.902344 71.945312 368.566406 71.046875 369.1875 70.121094 C 369.804688 69.191406 370.378906 68.234375 370.90625 67.25 C 371.433594 66.265625 371.910156 65.261719 372.335938 64.230469 C 372.761719 63.199219 373.136719 62.148438 373.460938 61.078125 C 373.785156 60.011719 374.058594 58.929688 374.273438 57.835938 C 374.492188 56.742188 374.65625 55.636719 374.765625 54.527344 C 374.875 53.417969 374.929688 52.304688 374.929688 51.1875 C 374.929688 50.070312 374.875 48.957031 374.765625 47.847656 C 374.65625 46.738281 374.492188 45.632812 374.273438 44.539062 C 374.058594 43.445312 373.785156 42.363281 373.460938 41.296875 C 373.136719 40.226562 372.761719 39.175781 372.335938 38.144531 C 371.910156 37.113281 371.433594 36.109375 370.90625 35.125 C 370.378906 34.140625 369.804688 33.183594 369.1875 32.253906 C 368.566406 31.328125 367.902344 30.429688 367.195312 29.570312 C 366.484375 28.707031 365.738281 27.878906 364.949219 27.089844 C 364.160156 26.300781 363.332031 25.554688 362.46875 24.84375 C 361.609375 24.136719 360.710938 23.472656 359.785156 22.851562 C 358.855469 22.234375 357.898438 21.660156 356.914062 21.132812 C 355.929688 20.605469 354.921875 20.128906 353.894531 19.703125 C 352.863281 19.277344 351.8125 18.902344 350.742188 18.578125 C 349.675781 18.253906 348.59375 17.980469 347.5 17.765625 C 346.40625 17.546875 345.300781 17.382812 344.191406 17.273438 C 343.082031 17.164062 341.96875 17.109375 340.851562 17.109375 L 34.148438 17.109375 C 33.03125 17.109375 31.917969 17.164062 30.808594 17.273438 C 29.699219 17.382812 28.59375 17.546875 27.5 17.765625 C 26.40625 17.980469 25.324219 18.253906 24.257812 18.578125 C 23.1875 18.902344 22.136719 19.277344 21.105469 19.703125 C 20.074219 20.128906 19.070312 20.605469 18.085938 21.132812 C 17.101562 21.660156 16.144531 22.234375 15.214844 22.851562 C 14.289062 23.472656 13.390625 24.136719 12.53125 24.84375 C 11.667969 25.554688 10.839844 26.300781 10.050781 27.089844 C 9.261719 27.878906 8.515625 28.707031 7.804688 29.570312 C 7.097656 30.429688 6.433594 31.328125 5.8125 32.253906 C 5.195312 33.183594 4.621094 34.140625 4.09375 35.125 C 3.566406 36.109375 3.089844 37.113281 2.664062 38.144531 C 2.238281 39.175781 1.863281 40.226562 1.539062 41.296875 C 1.214844 42.363281 0.941406 43.445312 0.726562 44.539062 C 0.507812 45.632812 0.34375 46.738281 0.234375 47.847656 C 0.125 48.957031 0.0703125 50.070312 0.0703125 51.1875 C 0.0703125 52.304688 0.125 53.417969 0.234375 54.527344 C 0.34375 55.636719 0.507812 56.742188 0.726562 57.835938 C 0.941406 58.929688 1.214844 60.011719 1.539062 61.078125 C 1.863281 62.148438 2.238281 63.199219 2.664062 64.230469 C 3.089844 65.261719 3.566406 66.265625 4.09375 67.25 C 4.621094 68.234375 5.195312 69.191406 5.8125 70.121094 C 6.433594 71.046875 7.097656 71.945312 7.804688 72.804688 C 8.515625 73.667969 9.261719 74.496094 10.050781 75.285156 C 10.839844 76.074219 11.667969 76.820312 12.53125 77.53125 C 13.390625 78.238281 14.289062 78.902344 15.214844 79.523438 C 16.144531 80.140625 17.101562 80.714844 18.085938 81.242188 C 19.070312 81.769531 20.074219 82.246094 21.105469 82.671875 C 22.136719 83.097656 23.1875 83.472656 24.257812 83.796875 C 25.324219 84.121094 26.40625 84.394531 27.5 84.609375 C 28.59375 84.828125 29.699219 84.992188 30.808594 85.101562 C 31.917969 85.210938 33.03125 85.265625 34.148438 85.265625 Z M 34.148438 85.265625 " fill-opacity="1" fill-rule="nonzero"/></g><path fill="#ffffff" d="M 340.851562 153.421875 L 34.148438 153.421875 C 33.03125 153.421875 31.917969 153.476562 30.808594 153.585938 C 29.699219 153.695312 28.59375 153.859375 27.5 154.078125 C 26.40625 154.292969 25.324219 154.566406 24.257812 154.890625 C 23.1875 155.214844 22.136719 155.589844 21.105469 156.015625 C 20.074219 156.441406 19.070312 156.917969 18.085938 157.445312 C 17.101562 157.972656 16.144531 158.546875 15.214844 159.164062 C 14.289062 159.785156 13.390625 160.449219 12.53125 161.15625 C 11.667969 161.867188 10.839844 162.613281 10.050781 163.402344 C 9.261719 164.191406 8.515625 165.019531 7.804688 165.882812 C 7.097656 166.742188 6.433594 167.640625 5.8125 168.566406 C 5.195312 169.496094 4.621094 170.453125 4.09375 171.4375 C 3.566406 172.421875 3.089844 173.425781 2.664062 174.457031 C 2.238281 175.488281 1.863281 176.539062 1.539062 177.609375 C 1.214844 178.675781 0.941406 179.757812 0.726562 180.851562 C 0.507812 181.945312 0.34375 183.050781 0.234375 184.160156 C 0.125 185.269531 0.0703125 186.382812 0.0703125 187.5 C 0.0703125 188.617188 0.125 189.730469 0.234375 190.839844 C 0.34375 191.949219 0.507812 193.054688 0.726562 194.148438 C 0.941406 195.242188 1.214844 196.324219 1.539062 197.390625 C 1.863281 198.460938 2.238281 199.511719 2.664062 200.542969 C 3.089844 201.570312 3.566406 202.578125 4.09375 203.5625 C 4.621094 204.546875 5.195312 205.503906 5.8125 206.433594 C 6.433594 207.359375 7.097656 208.257812 7.804688 209.117188 C 8.515625 209.980469 9.261719 210.808594 10.050781 211.597656 C 10.839844 212.386719 11.667969 213.132812 12.53125 213.84375 C 13.390625 214.550781 14.289062 215.214844 15.214844 215.835938 C 16.144531 216.453125 17.101562 217.027344 18.085938 217.554688 C 19.070312 218.082031 20.074219 218.558594 21.105469 218.984375 C 22.136719 219.410156 23.1875 219.785156 24.257812 220.109375 C 25.324219 220.433594 26.40625 220.707031 27.5 220.921875 C 28.59375 221.140625 29.699219 221.304688 30.808594 221.414062 C 31.917969 221.523438 33.03125 221.578125 34.148438 221.578125 L 340.851562 221.578125 C 341.96875 221.578125 343.082031 221.523438 344.191406 221.414062 C 345.300781 221.304688 346.40625 221.140625 347.5 220.921875 C 348.59375 220.707031 349.675781 220.433594 350.742188 220.109375 C 351.8125 219.785156 352.863281 219.410156 353.894531 218.984375 C 354.921875 218.558594 355.929688 218.082031 356.914062 217.554688 C 357.898438 217.027344 358.855469 216.453125 359.785156 215.835938 C 360.710938 215.214844 361.609375 214.550781 362.46875 213.84375 C 363.332031 213.132812 364.160156 212.386719 364.949219 211.597656 C 365.738281 210.808594 366.484375 209.980469 367.195312 209.117188 C 367.902344 208.257812 368.566406 207.359375 369.1875 206.433594 C 369.804688 205.503906 370.378906 204.546875 370.90625 203.5625 C 371.433594 202.578125 371.910156 201.570312 372.335938 200.542969 C 372.761719 199.511719 373.136719 198.460938 373.460938 197.390625 C 373.785156 196.324219 374.058594 195.242188 374.273438 194.148438 C 374.492188 193.054688 374.65625 191.949219 374.765625 190.839844 C 374.875 189.730469 374.929688 188.617188 374.929688 187.5 C 374.929688 186.382812 374.875 185.269531 374.765625 184.160156 C 374.65625 183.050781 374.492188 181.945312 374.273438 180.851562 C 374.058594 179.757812 373.785156 178.675781 373.460938 177.609375 C 373.136719 176.539062 372.761719 175.488281 372.335938 174.457031 C 371.910156 173.425781 371.433594 172.421875 370.90625 171.4375 C 370.378906 170.453125 369.804688 169.496094 369.1875 168.566406 C 368.566406 167.640625 367.902344 166.742188 367.195312 165.882812 C 366.484375 165.019531 365.738281 164.191406 364.949219 163.402344 C 364.160156 162.613281 363.332031 161.867188 362.46875 161.15625 C 361.609375 160.449219 360.710938 159.785156 359.785156 159.164062 C 358.855469 158.546875 357.898438 157.972656 356.914062 157.445312 C 355.929688 156.917969 354.921875 156.441406 353.894531 156.015625 C 352.863281 155.589844 351.8125 155.214844 350.742188 154.890625 C 349.675781 154.566406 348.59375 154.292969 347.5 154.078125 C 346.40625 153.859375 345.300781 153.695312 344.191406 153.585938 C 343.082031 153.476562 341.96875 153.421875 340.851562 153.421875 Z M 340.851562 153.421875 " fill-opacity="1" fill-rule="nonzero"/><g clip-path="url(#8b3ca0b66c)"><path fill="#ffffff" d="M 340.851562 289.734375 L 34.148438 289.734375 C 33.03125 289.734375 31.917969 289.789062 30.808594 289.898438 C 29.699219 290.007812 28.59375 290.171875 27.5 290.390625 C 26.40625 290.605469 25.324219 290.878906 24.257812 291.203125 C 23.1875 291.527344 22.136719 291.902344 21.105469 292.328125 C 20.074219 292.753906 19.070312 293.230469 18.085938 293.757812 C 17.101562 294.285156 16.144531 294.859375 15.214844 295.476562 C 14.289062 296.097656 13.390625 296.761719 12.53125 297.46875 C 11.667969 298.179688 10.839844 298.925781 10.050781 299.714844 C 9.261719 300.503906 8.515625 301.332031 7.804688 302.195312 C 7.097656 303.054688 6.433594 303.953125 5.8125 304.878906 C 5.195312 305.808594 4.621094 306.765625 4.09375 307.75 C 3.566406 308.734375 3.089844 309.738281 2.664062 310.769531 C 2.238281 311.800781 1.863281 312.851562 1.539062 313.921875 C 1.214844 314.988281 0.941406 316.070312 0.726562 317.164062 C 0.507812 318.257812 0.34375 319.363281 0.234375 320.472656 C 0.125 321.582031 0.0703125 322.695312 0.0703125 323.8125 C 0.0703125 324.929688 0.125 326.042969 0.234375 327.152344 C 0.34375 328.261719 0.507812 329.367188 0.726562 330.460938 C 0.941406 331.554688 1.214844 332.636719 1.539062 333.703125 C 1.863281 334.773438 2.238281 335.824219 2.664062 336.855469 C 3.089844 337.882812 3.566406 338.890625 4.09375 339.875 C 4.621094 340.859375 5.195312 341.816406 5.8125 342.746094 C 6.433594 343.671875 7.097656 344.570312 7.804688 345.429688 C 8.515625 346.292969 9.261719 347.121094 10.050781 347.910156 C 10.839844 348.699219 11.667969 349.445312 12.53125 350.15625 C 13.390625 350.863281 14.289062 351.527344 15.214844 352.148438 C 16.144531 352.765625 17.101562 353.339844 18.085938 353.867188 C 19.070312 354.394531 20.074219 354.871094 21.105469 355.296875 C 22.136719 355.722656 23.1875 356.097656 24.257812 356.421875 C 25.324219 356.746094 26.40625 357.019531 27.5 357.234375 C 28.59375 357.453125 29.699219 357.617188 30.808594 357.726562 C 31.917969 357.835938 33.03125 357.890625 34.148438 357.890625 L 340.851562 357.890625 C 341.96875 357.890625 343.082031 357.835938 344.191406 357.726562 C 345.300781 357.617188 346.40625 357.453125 347.5 357.234375 C 348.59375 357.019531 349.675781 356.746094 350.742188 356.421875 C 351.8125 356.097656 352.863281 355.722656 353.894531 355.296875 C 354.921875 354.871094 355.929688 354.394531 356.914062 353.867188 C 357.898438 353.339844 358.855469 352.765625 359.785156 352.148438 C 360.710938 351.527344 361.609375 350.863281 362.46875 350.15625 C 363.332031 349.445312 364.160156 348.699219 364.949219 347.910156 C 365.738281 347.121094 366.484375 346.292969 367.195312 345.429688 C 367.902344 344.570312 368.566406 343.671875 369.1875 342.746094 C 369.804688 341.816406 370.378906 340.859375 370.90625 339.875 C 371.433594 338.890625 371.910156 337.882812 372.335938 336.855469 C 372.761719 335.824219 373.136719 334.773438 373.460938 333.703125 C 373.785156 332.636719 374.058594 331.554688 374.273438 330.460938 C 374.492188 329.367188 374.65625 328.261719 374.765625 327.152344 C 374.875 326.042969 374.929688 324.929688 374.929688 323.8125 C 374.929688 322.695312 374.875 321.582031 374.765625 320.472656 C 374.65625 319.363281 374.492188 318.257812 374.273438 317.164062 C 374.058594 316.070312 373.785156 314.988281 373.460938 313.921875 C 373.136719 312.851562 372.761719 311.800781 372.335938 310.769531 C 371.910156 309.738281 371.433594 308.734375 370.90625 307.75 C 370.378906 306.765625 369.804688 305.808594 369.1875 304.878906 C 368.566406 303.953125 367.902344 303.054688 367.195312 302.195312 C 366.484375 301.332031 365.738281 300.503906 364.949219 299.714844 C 364.160156 298.925781 363.332031 298.179688 362.46875 297.46875 C 361.609375 296.761719 360.710938 296.097656 359.785156 295.476562 C 358.855469 294.859375 357.898438 294.285156 356.914062 293.757812 C 355.929688 293.230469 354.921875 292.753906 353.894531 292.328125 C 352.863281 291.902344 351.8125 291.527344 350.742188 291.203125 C 349.675781 290.878906 348.59375 290.605469 347.5 290.390625 C 346.40625 290.171875 345.300781 290.007812 344.191406 289.898438 C 343.082031 289.789062 341.96875 289.734375 340.851562 289.734375 Z M 340.851562 289.734375 " fill-opacity="1" fill-rule="nonzero"/></g></svg>