<svg xmlns="http://www.w3.org/2000/svg" xmlns:xlink="http://www.w3.org/1999/xlink" width="500" zoomAndPan="magnify" viewBox="0 0 375 374.999991" height="500" preserveAspectRatio="xMidYMid meet" version="1.0"><defs><clipPath id="37eae47809"><path d="M 6 4.632812 L 370.632812 4.632812 L 370.632812 369 L 6 369 Z M 6 4.632812 " clip-rule="nonzero"/></clipPath></defs><g clip-path="url(#37eae47809)"><path fill="#ffffff" d="M 156.574219 90.640625 L 157.910156 90.683594 C 162.476562 90.945312 166.664062 92.554688 170.480469 95.511719 L 259.769531 176.605469 C 264.894531 181.457031 267.316406 187.410156 267.035156 194.460938 C 266.46875 201.496094 263.347656 207.113281 257.675781 211.3125 L 157.277344 282.519531 C 154.246094 284.617188 150.277344 285.769531 145.375 285.972656 C 136.464844 285.625 129.863281 281.628906 125.578125 273.984375 C 121.957031 266.375 122.226562 259.023438 126.378906 251.917969 C 129.3125 248.023438 131.332031 245.871094 132.445312 245.464844 L 209.234375 190.972656 L 141.558594 129.464844 C 140.503906 128.925781 138.753906 126.546875 136.3125 122.324219 C 133.042969 114.777344 133.664062 107.441406 138.171875 100.324219 C 142.871094 93.972656 149.007812 90.742188 156.574219 90.640625 M 188.335938 4.652344 L 171.464844 5.695312 C 149.402344 7.902344 129.050781 13.359375 110.414062 22.070312 C 101.09375 26.425781 92.199219 31.597656 83.734375 37.578125 C 78.871094 39.648438 67.234375 50.355469 48.820312 69.699219 C 44.40625 73.183594 36.042969 86.203125 23.730469 108.753906 C 19.375 118.074219 15.832031 127.820312 13.101562 137.996094 C 7.453125 158.660156 5.4375 180.410156 7.066406 203.253906 C 11.453125 249.054688 30.964844 288.347656 65.605469 321.132812 C 73.21875 328.125 81.324219 334.371094 89.921875 339.867188 L 103.1875 347.546875 C 112.28125 352.292969 121.863281 356.289062 131.9375 359.539062 C 150.910156 366.742188 174.199219 369.535156 201.8125 367.917969 C 246.523438 365.753906 286.851562 346.25 322.789062 309.40625 C 336.777344 294.175781 347.769531 276.980469 355.765625 257.816406 C 359.761719 248.234375 363.007812 238.160156 365.507812 227.59375 C 368.140625 219.609375 369.757812 205.96875 370.355469 186.675781 C 369.777344 163.757812 365.949219 142.550781 358.863281 123.054688 C 355.320312 113.304688 350.964844 103.988281 345.796875 95.09375 C 331.449219 73.613281 321.863281 61.234375 317.042969 57.964844 C 301.824219 42.746094 284.898438 30.78125 266.257812 22.070312 C 242.207031 12.605469 227.265625 7.902344 221.429688 7.960938 C 210.824219 6.042969 199.792969 4.941406 188.335938 4.652344 Z M 188.335938 4.652344 " fill-opacity="1" fill-rule="nonzero"/></g></svg>