<svg xmlns="http://www.w3.org/2000/svg" xmlns:xlink="http://www.w3.org/1999/xlink" width="500" zoomAndPan="magnify" viewBox="0 0 375 374.999991" height="500" preserveAspectRatio="xMidYMid meet" version="1.0"><path fill="#ffffff" d="M 310.191406 375 L 88.53125 375 C 71.617188 375 57.996094 361.378906 57.996094 344.464844 L 57.996094 311.730469 C 57.996094 309.753906 59.753906 307.996094 61.730469 307.996094 C 63.707031 307.996094 65.464844 309.753906 65.464844 311.730469 L 65.464844 344.464844 C 65.464844 357.207031 75.789062 367.53125 88.53125 367.53125 L 310.191406 367.53125 C 322.933594 367.53125 333.261719 357.207031 333.261719 344.464844 L 333.261719 56.898438 L 283.832031 7.25 L 88.53125 7.25 C 75.789062 7.25 65.464844 17.574219 65.464844 30.316406 L 65.464844 190.90625 C 65.464844 193.101562 63.707031 194.640625 61.730469 194.640625 C 59.753906 194.640625 57.996094 193.101562 57.996094 190.90625 L 57.996094 30.316406 C 57.996094 13.621094 71.617188 0 88.53125 0 L 285.367188 0 C 286.246094 0 287.347656 0.4375 288.003906 1.097656 L 339.632812 52.722656 C 340.289062 53.382812 340.730469 54.261719 340.730469 55.359375 L 340.730469 344.464844 C 340.730469 361.378906 327.109375 375 310.191406 375 Z M 310.191406 375 " fill-opacity="1" fill-rule="evenodd"/><path fill="#ffffff" d="M 334.359375 56.457031 L 311.511719 56.457031 C 295.035156 56.457031 281.632812 43.058594 281.632812 26.582031 L 281.632812 3.734375 C 281.632812 1.539062 283.390625 0 285.367188 0 C 287.347656 0 289.105469 1.539062 289.105469 3.734375 L 289.105469 26.582031 C 289.105469 38.882812 299.210938 49.210938 311.511719 49.210938 L 334.359375 49.210938 C 336.554688 49.210938 338.09375 50.746094 338.09375 52.722656 C 338.09375 54.703125 336.554688 56.457031 334.359375 56.457031 Z M 334.359375 56.457031 " fill-opacity="1" fill-rule="evenodd"/><path fill="#ffffff" d="M 251.757812 315.246094 L 61.730469 315.246094 C 46.574219 315.246094 34.269531 302.945312 34.269531 287.785156 L 34.269531 214.851562 C 34.269531 199.691406 46.574219 187.390625 61.730469 187.390625 L 251.757812 187.390625 C 266.914062 187.390625 279.21875 199.691406 279.21875 214.851562 L 279.21875 287.785156 C 279.21875 302.945312 266.914062 315.246094 251.757812 315.246094 Z M 61.730469 194.640625 C 50.527344 194.640625 41.519531 203.648438 41.519531 214.851562 L 41.519531 287.785156 C 41.519531 298.988281 50.527344 307.996094 61.730469 307.996094 L 251.757812 307.996094 C 262.960938 307.996094 271.96875 298.988281 271.96875 287.785156 L 271.96875 214.851562 C 271.96875 203.648438 262.960938 194.640625 251.757812 194.640625 Z M 61.730469 194.640625 " fill-opacity="1" fill-rule="evenodd"/><path fill="#ffffff" d="M 262.960938 110.5 L 181.457031 110.5 C 179.261719 110.5 177.722656 108.964844 177.722656 106.984375 C 177.722656 104.789062 179.261719 103.25 181.457031 103.25 L 262.960938 103.25 C 264.9375 103.25 266.476562 104.789062 266.476562 106.984375 C 266.476562 108.964844 264.9375 110.5 262.960938 110.5 Z M 159.710938 110.5 L 135.765625 110.5 C 133.789062 110.5 132.25 108.964844 132.25 106.984375 C 132.25 104.789062 133.789062 103.25 135.765625 103.25 L 159.710938 103.25 C 161.6875 103.25 163.226562 104.789062 163.226562 106.984375 C 163.226562 108.964844 161.6875 110.5 159.710938 110.5 Z M 159.710938 110.5 " fill-opacity="1" fill-rule="evenodd"/><path fill="#ffffff" d="M 262.960938 137.082031 L 224.738281 137.082031 C 222.757812 137.082031 221.222656 135.324219 221.222656 133.347656 C 221.222656 131.371094 222.757812 129.613281 224.738281 129.613281 L 262.960938 129.613281 C 264.9375 129.613281 266.476562 131.371094 266.476562 133.347656 C 266.476562 135.324219 264.9375 137.082031 262.960938 137.082031 Z M 203.207031 137.082031 L 135.765625 137.082031 C 133.789062 137.082031 132.25 135.324219 132.25 133.347656 C 132.25 131.371094 133.789062 129.613281 135.765625 129.613281 L 203.207031 129.613281 C 205.183594 129.613281 206.722656 131.371094 206.722656 133.347656 C 206.722656 135.324219 205.183594 137.082031 203.207031 137.082031 Z M 203.207031 137.082031 " fill-opacity="1" fill-rule="evenodd"/><path fill="#ffffff" d="M 104.128906 275.042969 C 102.152344 275.042969 100.394531 273.507812 100.394531 271.527344 L 100.394531 231.105469 C 100.394531 229.128906 102.152344 227.59375 104.128906 227.59375 C 106.105469 227.59375 107.863281 229.128906 107.863281 231.105469 L 107.863281 271.527344 C 107.863281 273.507812 106.105469 275.042969 104.128906 275.042969 Z M 104.128906 275.042969 " fill-opacity="1" fill-rule="evenodd"/><path fill="#ffffff" d="M 125.21875 257.25 L 104.128906 257.25 C 102.152344 257.25 100.394531 255.710938 100.394531 253.515625 L 100.394531 231.105469 C 100.394531 229.128906 102.152344 227.59375 104.128906 227.59375 L 125.21875 227.59375 C 133.347656 227.59375 140.15625 234.183594 140.15625 242.3125 C 140.15625 250.660156 133.347656 257.25 125.21875 257.25 Z M 107.863281 250 L 125.21875 250 C 129.394531 250 132.6875 246.484375 132.6875 242.3125 C 132.6875 238.136719 129.394531 234.84375 125.21875 234.84375 L 107.863281 234.84375 Z M 107.863281 250 " fill-opacity="1" fill-rule="evenodd"/><path fill="#ffffff" d="M 139.71875 275.042969 C 138.402344 275.042969 137.082031 274.386719 136.421875 273.285156 C 132.46875 265.597656 126.976562 258.128906 125 257.25 C 123.023438 257.03125 121.484375 255.492188 121.484375 253.515625 C 121.484375 251.539062 123.242188 250 125.21875 250 C 131.152344 250 138.179688 260.765625 143.015625 269.773438 C 143.894531 271.527344 143.234375 273.726562 141.476562 274.824219 C 140.816406 275.042969 140.378906 275.042969 139.71875 275.042969 Z M 139.71875 275.042969 " fill-opacity="1" fill-rule="evenodd"/><path fill="#ffffff" d="M 165.859375 275.042969 C 164.542969 275.042969 163.003906 274.164062 162.566406 272.847656 L 146.96875 232.425781 C 146.308594 230.667969 147.1875 228.472656 149.164062 227.8125 C 150.921875 227.152344 153.121094 228.03125 153.777344 229.789062 L 165.859375 261.421875 L 178.164062 229.789062 C 178.824219 228.03125 181.019531 227.152344 182.777344 227.8125 C 184.753906 228.472656 185.632812 230.667969 184.972656 232.425781 L 169.375 272.847656 C 168.9375 274.164062 167.398438 275.042969 165.859375 275.042969 Z M 165.859375 275.042969 " fill-opacity="1" fill-rule="evenodd"/><path fill="#ffffff" d="M 208.261719 275.042969 C 206.0625 275.042969 204.527344 273.507812 204.527344 271.527344 L 204.527344 231.105469 C 204.527344 229.128906 206.0625 227.59375 208.261719 227.59375 C 210.238281 227.59375 211.773438 229.128906 211.773438 231.105469 L 211.773438 271.527344 C 211.773438 273.507812 210.238281 275.042969 208.261719 275.042969 Z M 208.261719 275.042969 " fill-opacity="1" fill-rule="evenodd"/><path fill="#ffffff" d="M 224.078125 234.84375 L 192.222656 234.84375 C 190.246094 234.84375 188.488281 233.304688 188.488281 231.105469 C 188.488281 229.128906 190.246094 227.59375 192.222656 227.59375 L 224.078125 227.59375 C 226.054688 227.59375 227.59375 229.128906 227.59375 231.105469 C 227.59375 233.304688 226.054688 234.84375 224.078125 234.84375 Z M 224.078125 234.84375 " fill-opacity="1" fill-rule="evenodd"/><path fill="#ffffff" d="M 89.410156 275.042969 C 87.433594 275.042969 85.894531 273.507812 85.894531 271.527344 C 85.894531 269.550781 87.433594 267.792969 89.410156 267.792969 C 91.609375 267.792969 93.144531 269.550781 93.144531 271.527344 C 93.144531 273.507812 91.609375 275.042969 89.410156 275.042969 Z M 89.410156 275.042969 " fill-opacity="1" fill-rule="evenodd"/></svg>