<svg xmlns="http://www.w3.org/2000/svg" xmlns:xlink="http://www.w3.org/1999/xlink" width="500" zoomAndPan="magnify" viewBox="0 0 375 374.999991" height="500" preserveAspectRatio="xMidYMid meet" version="1.0"><defs><clipPath id="693a79b38e"><path d="M 3 15.339844 L 375 15.339844 L 375 359.589844 L 3 359.589844 Z M 3 15.339844 " clip-rule="nonzero"/></clipPath></defs><g clip-path="url(#693a79b38e)"><path fill="#ffffff" d="M 11.792969 359.675781 C 11.488281 359.675781 11.179688 359.648438 10.871094 359.601562 C 8.476562 359.210938 6.582031 357.359375 6.140625 354.976562 C 5.507812 351.578125 0.136719 320.652344 5.683594 281.097656 C 8.839844 258.59375 14.925781 237.289062 23.769531 217.777344 C 34.722656 193.609375 49.980469 172.085938 69.113281 153.804688 C 111.648438 113.15625 161.125 99.570312 196.847656 95.546875 L 196.847656 21.550781 C 196.847656 19.253906 198.214844 17.179688 200.320312 16.269531 C 202.429688 15.363281 204.875 15.792969 206.542969 17.367188 L 373.035156 174.496094 C 374.1875 175.582031 374.839844 177.09375 374.839844 178.675781 C 374.839844 180.261719 374.1875 181.773438 373.035156 182.859375 L 206.542969 339.992188 C 204.875 341.570312 202.429688 342.003906 200.320312 341.09375 C 198.214844 340.183594 196.847656 338.109375 196.847656 335.8125 L 196.847656 248.035156 C 164.355469 248.691406 133.503906 256.402344 105.058594 270.988281 C 55.527344 296.390625 28.515625 335.601562 16.820312 356.710938 C 15.796875 358.558594 13.859375 359.675781 11.792969 359.675781 Z M 11.792969 359.675781 " fill-opacity="1" fill-rule="nonzero"/></g></svg>