<svg xmlns="http://www.w3.org/2000/svg" xmlns:xlink="http://www.w3.org/1999/xlink" width="500" zoomAndPan="magnify" viewBox="0 0 375 374.999991" height="500" preserveAspectRatio="xMidYMid meet" version="1.0"><path fill="#ffffff" d="M 230.839844 281.433594 C 227.480469 280.519531 223.996094 282.523438 223.089844 285.898438 C 210.964844 330.914062 169.894531 362.355469 123.207031 362.355469 C 66.183594 362.355469 19.789062 315.960938 19.789062 258.933594 C 19.789062 205.152344 60.117188 160.878906 113.601562 155.953125 C 117.082031 155.632812 119.640625 152.550781 119.320312 149.070312 C 118.996094 145.59375 115.933594 143.058594 112.441406 143.351562 C 52.410156 148.882812 7.136719 198.574219 7.136719 258.933594 C 7.136719 322.9375 59.210938 375.007812 123.207031 375.007812 C 175.605469 375.007812 221.695312 339.714844 235.300781 289.183594 C 236.214844 285.8125 234.210938 282.34375 230.839844 281.433594 " fill-opacity="1" fill-rule="nonzero"/><path fill="#ffffff" d="M 80.035156 270.234375 C 77.980469 267.402344 74.023438 266.78125 71.199219 268.824219 C 68.375 270.875 67.738281 274.828125 69.789062 277.660156 L 94.164062 311.289062 C 95.210938 312.738281 96.820312 313.671875 98.59375 313.871094 C 98.824219 313.890625 99.058594 313.910156 99.289062 313.910156 C 100.824219 313.910156 102.3125 313.347656 103.476562 312.320312 L 177.667969 246.742188 C 180.289062 244.429688 180.535156 240.429688 178.21875 237.8125 C 175.90625 235.199219 171.910156 234.953125 169.292969 237.261719 L 100.320312 298.222656 L 80.035156 270.234375 " fill-opacity="1" fill-rule="nonzero"/><path fill="#ffffff" d="M 363.664062 24.148438 C 360.21875 17.523438 353.703125 11.125 345.792969 6.597656 C 338.097656 2.191406 329.933594 -0.0078125 323.050781 -0.0078125 C 316.144531 -0.0078125 310.539062 2.207031 308 6.644531 C 304.996094 11.898438 307.480469 18.332031 309.230469 21.699219 C 312.679688 28.328125 319.195312 34.726562 327.105469 39.253906 C 335.015625 43.777344 343.84375 46.15625 351.289062 45.769531 C 355.0625 45.578125 361.792969 44.46875 364.832031 39.296875 L 364.914062 39.171875 C 367.886719 33.921875 365.410156 27.511719 363.664062 24.148438 " fill-opacity="1" fill-rule="nonzero"/><path fill="#ffffff" d="M 319.199219 134.1875 C 314.917969 141.6875 306.421875 146.273438 295.425781 146.839844 C 294.671875 146.875 293.914062 146.894531 293.144531 146.894531 C 283.792969 146.898438 273.640625 144.011719 264.300781 138.667969 C 254.195312 132.882812 246.097656 124.824219 241.492188 115.96875 C 236.410156 106.203125 236.058594 96.554688 240.503906 88.792969 L 248.148438 76.832031 C 218.003906 71.472656 192.625 79.070312 182.398438 96.933594 C 166.558594 124.613281 190.066406 167.953125 234.796875 193.554688 C 278.21875 218.40625 325.835938 217.46875 343.078125 192.078125 L 346.328125 186.40625 C 354.265625 168.285156 347.082031 143.664062 327.371094 121.398438 L 319.199219 134.1875 " fill-opacity="1" fill-rule="nonzero"/><path fill="#ffffff" d="M 349.664062 58.460938 C 340.3125 58.460938 330.160156 55.578125 320.820312 50.234375 C 310.714844 44.445312 302.613281 36.386719 298.011719 27.535156 C 297.476562 26.519531 297.03125 25.5 296.605469 24.488281 L 251.320312 95.339844 C 248.472656 100.332031 250.960938 106.765625 252.714844 110.132812 C 256.160156 116.761719 262.671875 123.15625 270.585938 127.6875 C 278.492188 132.210938 287.3125 134.59375 294.773438 134.207031 C 298.566406 134.007812 305.375 132.894531 308.378906 127.640625 L 352.667969 58.332031 C 352.421875 58.347656 352.191406 58.390625 351.941406 58.40625 C 351.195312 58.445312 350.429688 58.460938 349.664062 58.460938 " fill-opacity="1" fill-rule="nonzero"/><path fill="#ffffff" d="M 228.515625 204.53125 C 193.371094 184.421875 170.296875 153.761719 165.804688 125.605469 L 158.640625 137.980469 C 142.820312 165.625 166.324219 208.96875 211.054688 234.578125 C 233.148438 247.21875 256.980469 253.558594 278.167969 252.492188 C 298.320312 251.453125 313.496094 243.757812 320.902344 230.816406 L 327.753906 218.851562 C 318.65625 222.3125 308.234375 224.078125 297.050781 224.078125 C 275.628906 224.078125 251.4375 217.652344 228.515625 204.53125 " fill-opacity="1" fill-rule="nonzero"/></svg>