<svg width="62" height="62" viewBox="0 0 62 62" fill="none" xmlns="http://www.w3.org/2000/svg">
<g clip-path="url(#clip0_57_25)">
<path d="M30.9781 -0.0213065C13.7634 0.0368184 0.00452714 14.0275 0.229277 31.2325C0.239611 32.0966 0.286111 32.9588 0.369423 33.8197C0.45209 34.68 0.571569 35.5357 0.726569 36.3856C0.882215 37.2362 1.07338 38.0783 1.29942 38.9128C1.52611 39.7472 1.78767 40.5706 2.08346 41.3824C2.37926 42.1949 2.70928 42.9931 3.07288 43.7778C3.43649 44.5619 3.83238 45.3298 4.26057 46.0809C4.68876 46.832 5.14859 47.563 5.63878 48.2754C6.12896 48.9878 6.64821 49.6782 7.19653 50.3466C7.28242 50.4519 7.36057 50.5636 7.43032 50.6805C7.49942 50.7974 7.56013 50.9194 7.61115 51.0454C7.66282 51.172 7.70415 51.3011 7.73644 51.4335C7.76809 51.5659 7.79005 51.7003 7.80167 51.8359C7.81394 51.9715 7.81524 52.1071 7.80684 52.2434C7.79844 52.379 7.77972 52.5134 7.7513 52.647C7.72288 52.7801 7.68413 52.9105 7.63634 53.0378C7.58855 53.165 7.53107 53.2884 7.46455 53.4072L4.8063 58.1683C4.0694 59.4884 5.27001 61.0487 6.7354 60.676L15.739 58.3846C16.0528 58.3052 16.3706 58.2819 16.6929 58.3149C17.0151 58.3478 17.3219 58.435 17.6132 58.5771C19.6043 59.5439 21.6755 60.2866 23.8267 60.8059C25.9787 61.3245 28.1603 61.608 30.3736 61.6558C47.6812 62.0465 61.8883 48.2231 61.9419 30.9193C61.9955 13.8053 48.1023 -0.0787857 30.9781 -0.0213065ZM31.0846 57.8628C30.6416 57.8628 30.1992 57.8525 29.7568 57.8305C29.315 57.8085 28.8733 57.7763 28.4328 57.733C27.9917 57.6897 27.5525 57.6355 27.1147 57.5702C26.6768 57.5056 26.2409 57.4301 25.8062 57.3435C25.3722 57.257 24.9402 57.1601 24.5107 57.0529C24.0812 56.9451 23.6543 56.8275 23.2306 56.699C22.807 56.5705 22.3865 56.4316 21.97 56.2824C21.5528 56.1333 21.1401 55.9744 20.7306 55.8045C20.3218 55.6353 19.9169 55.4564 19.5171 55.2672C19.1167 55.078 18.7214 54.879 18.3307 54.6704C17.94 54.4618 17.555 54.2435 17.1753 54.0162C16.7955 53.7882 16.4216 53.5519 16.0535 53.3058C15.6854 53.0597 15.323 52.8053 14.9678 52.5418C14.612 52.2783 14.2632 52.0057 13.9209 51.7248C13.5787 51.4445 13.2435 51.1552 12.9154 50.8581C12.5873 50.561 12.2663 50.2555 11.9537 49.9429C11.6405 49.6297 11.335 49.3094 11.0379 48.9813C10.7402 48.6539 10.4515 48.3187 10.1706 47.9764C9.88965 47.6347 9.61711 47.2853 9.35361 46.9301C9.08947 46.5749 8.83501 46.2133 8.58894 45.8451C8.34288 45.477 8.10586 45.1031 7.87853 44.724C7.65055 44.3442 7.43226 43.9593 7.22365 43.5686C7.01505 43.1785 6.81613 42.7832 6.6269 42.3835C6.43767 41.983 6.25813 41.5788 6.08828 41.1699C5.91907 40.7611 5.75955 40.3478 5.61036 39.9312C5.46117 39.5147 5.32232 39.0949 5.1938 38.6712C5.06528 38.2475 4.94774 37.8213 4.83988 37.3918C4.73203 36.9623 4.63515 36.5309 4.54861 36.0969C4.46271 35.6629 4.38715 35.227 4.32192 34.7891C4.25669 34.3512 4.20244 33.9121 4.15917 33.4716C4.1159 33.0312 4.08361 32.59 4.06165 32.1483C4.03969 31.7059 4.02936 31.2635 4.02936 30.8211C4.02936 15.8862 16.1426 3.77942 31.0846 3.77942C45.9691 3.77942 58.0456 15.7926 58.1392 30.6474C58.2335 45.5519 45.9976 57.8628 31.0846 57.8628Z" fill="#1BA553"/>
<path d="M26.2494 17.6739L26.2616 17.6991L27.8749 20.8979C27.9621 21.0697 28.0344 21.2479 28.0926 21.4314C28.1507 21.6154 28.1933 21.8021 28.2211 21.9932C28.2489 22.1838 28.2618 22.3749 28.2586 22.568C28.2553 22.7605 28.2366 22.9516 28.203 23.1415C28.1688 23.3308 28.1197 23.5168 28.0558 23.6982C27.9918 23.8804 27.9137 24.0554 27.822 24.2246C27.7296 24.3938 27.6243 24.5546 27.5062 24.707C27.388 24.8588 27.2582 25.0009 27.1174 25.132C26.9766 25.2624 26.8474 25.4032 26.7299 25.5537C26.6117 25.7048 26.5071 25.8644 26.4147 26.0323C26.3223 26.2002 26.2442 26.3746 26.1803 26.5548C26.1157 26.7356 26.0666 26.9196 26.0317 27.1082C25.9975 27.2968 25.9781 27.4867 25.9742 27.6779C25.9704 27.8697 25.9813 28.0602 26.0085 28.2501C26.0349 28.4393 26.0763 28.6259 26.1331 28.8087C26.1899 28.9921 26.2603 29.1691 26.3456 29.3409C27.3143 31.2848 28.9929 33.965 31.5536 35.8987C31.6963 36.0065 31.8468 36.104 32.0037 36.1899C32.1613 36.2758 32.3241 36.3495 32.492 36.4108C32.6606 36.4722 32.8323 36.5213 33.008 36.5568C33.1837 36.5929 33.3606 36.6155 33.5395 36.6246C33.7184 36.6343 33.8973 36.6304 34.0756 36.613C34.2538 36.5955 34.4301 36.5652 34.6039 36.5213C34.7776 36.4773 34.9474 36.4211 35.1128 36.352C35.2781 36.2829 35.437 36.2022 35.5907 36.1092L36.6298 35.4776C36.863 35.3355 37.1084 35.2218 37.368 35.1366C37.627 35.0507 37.8924 34.9951 38.1637 34.9706C38.4356 34.9454 38.7062 34.9512 38.9768 34.988C39.2468 35.0249 39.5096 35.092 39.7647 35.1889L43.8955 36.7583C44.0053 36.8003 44.1125 36.8468 44.2177 36.8991C44.3224 36.9514 44.4251 37.0089 44.5245 37.0709C44.624 37.1335 44.7202 37.2 44.8132 37.2724C44.9056 37.344 44.9947 37.4196 45.0806 37.5003C45.1658 37.5811 45.2472 37.665 45.3241 37.7535C45.4009 37.842 45.4739 37.9343 45.5417 38.0299C45.6095 38.1255 45.6728 38.2243 45.7316 38.3257C45.7897 38.4278 45.8427 38.5317 45.8911 38.6389C45.9389 38.7461 45.9815 38.8553 46.019 38.9664C46.0564 39.0775 46.0881 39.1905 46.1146 39.3048C46.141 39.4191 46.1617 39.5347 46.1766 39.651C46.1914 39.7672 46.2004 39.8841 46.2037 40.001C46.2076 40.1185 46.205 40.2354 46.1972 40.3523C46.1888 40.4699 46.1753 40.5861 46.1559 40.7017C46.1359 40.8173 46.1113 40.9316 46.0803 41.0453C46.0493 41.1583 46.0132 41.2694 45.9718 41.3792C45.9234 41.5051 45.8685 41.6285 45.8065 41.7486L44.6621 43.9658C44.5691 44.1453 44.4619 44.3158 44.3404 44.4766C44.219 44.6381 44.0853 44.7879 43.9381 44.9268C43.7915 45.065 43.6339 45.1903 43.466 45.3026C43.2981 45.4144 43.1218 45.5119 42.9377 45.5939C42.753 45.6766 42.5631 45.7425 42.3674 45.7928C42.1717 45.8432 41.9735 45.8761 41.772 45.8929C41.5711 45.9097 41.3696 45.9097 41.1688 45.8923C40.9673 45.8749 40.769 45.8406 40.5733 45.7903C34.0859 44.1124 18.6247 38.2811 17.3795 20.648C17.3666 20.4742 17.3672 20.2999 17.3801 20.1261C17.3937 19.9518 17.4189 19.78 17.4576 19.6095C17.4957 19.4396 17.5461 19.273 17.6088 19.1102C17.6714 18.9468 17.745 18.7899 17.8309 18.6375C17.9168 18.4857 18.0131 18.3404 18.1196 18.2022C18.2262 18.0646 18.3424 17.9348 18.4684 17.814C18.5943 17.6926 18.728 17.5815 18.8701 17.4801C19.0122 17.3788 19.1607 17.2877 19.3157 17.2083L21.4224 16.1265C21.527 16.0729 21.6336 16.0244 21.7427 15.9812C21.8519 15.9379 21.963 15.9004 22.076 15.8681C22.189 15.8359 22.3027 15.8094 22.4183 15.7881C22.5339 15.7668 22.6501 15.7519 22.767 15.7422C22.8839 15.7325 23.0015 15.7286 23.119 15.7306C23.2359 15.7325 23.3528 15.7396 23.4697 15.7532C23.5866 15.7668 23.7022 15.7855 23.8165 15.81C23.9315 15.8352 24.0451 15.8656 24.1569 15.9011C24.2686 15.9373 24.3784 15.9779 24.4856 16.0251C24.5934 16.0716 24.6987 16.1233 24.8014 16.1801C24.9041 16.2369 25.0036 16.2989 25.1004 16.3654C25.1967 16.4326 25.2897 16.5036 25.3794 16.5799C25.4686 16.6554 25.5544 16.7355 25.6358 16.8201C25.7178 16.9041 25.7953 16.9925 25.8683 17.0843C25.9413 17.176 26.0098 17.2715 26.0731 17.3697C26.137 17.4685 26.1951 17.5699 26.2494 17.6739Z" fill="#1BA553"/>
</g>
<defs>
<clipPath id="clip0_57_25">
<rect width="62" height="62" fill="white"/>
</clipPath>
</defs>
</svg>
